<svg width="15" height="9" viewBox="0 0 15 9" fill="none" xmlns="http://www.w3.org/2000/svg">
<path d="M8.67362 8.60255V7.51672L11.5543 4.69275C11.8298 4.41454 12.0594 4.16739 12.2431 3.9513C12.4268 3.73522 12.5645 3.52588 12.6564 3.3233C12.7482 3.12072 12.7941 2.90464 12.7941 2.67505C12.7941 2.41304 12.7347 2.18885 12.6158 2.00248C12.497 1.8134 12.3336 1.66754 12.1256 1.5649C11.9176 1.46226 11.6813 1.41094 11.4166 1.41094C11.1438 1.41094 10.9047 1.46766 10.6994 1.58111C10.4941 1.69185 10.3348 1.84987 10.2213 2.05515C10.1106 2.26043 10.0552 2.50488 10.0552 2.78849H8.625C8.625 2.26178 8.7452 1.80395 8.98559 1.41499C9.22599 1.02604 9.55687 0.724868 9.97824 0.511484C10.4023 0.298099 10.8885 0.191406 11.4368 0.191406C11.9932 0.191406 12.4821 0.295398 12.9035 0.50338C13.3249 0.711363 13.6517 0.996327 13.884 1.35827C14.119 1.72021 14.2365 2.13348 14.2365 2.59806C14.2365 2.90869 14.1771 3.21391 14.0582 3.51373C13.9394 3.81355 13.73 4.14578 13.4302 4.51043C13.1331 4.87507 12.7158 5.3167 12.1783 5.8353L10.748 7.28983V7.34655H14.3621V8.60255H8.67362Z" fill="black"/>
<path d="M4.13032 8.76057C3.46315 8.76057 2.89052 8.59175 2.41243 8.25412C1.93704 7.91378 1.57105 7.42353 1.31445 6.78338C1.06054 6.14052 0.933594 5.36667 0.933594 4.46181C0.936295 3.55695 1.0646 2.78714 1.3185 2.15239C1.5751 1.51493 1.94109 1.02874 2.41648 0.693807C2.89457 0.358873 3.46585 0.191406 4.13032 0.191406C4.79478 0.191406 5.36606 0.358873 5.84415 0.693807C6.32224 1.02874 6.68823 1.51493 6.94214 2.15239C7.19874 2.78984 7.32704 3.55965 7.32704 4.46181C7.32704 5.36937 7.19874 6.14458 6.94214 6.78743C6.68823 7.42759 6.32224 7.91648 5.84415 8.25412C5.36876 8.59175 4.79748 8.76057 4.13032 8.76057ZM4.13032 7.49241C4.64892 7.49241 5.05814 7.23716 5.35795 6.72666C5.66048 6.21345 5.81174 5.4585 5.81174 4.46181C5.81174 3.80274 5.74286 3.24902 5.6051 2.80064C5.46735 2.35227 5.27287 2.01463 5.02167 1.78774C4.77047 1.55815 4.47335 1.44335 4.13032 1.44335C3.61441 1.44335 3.20655 1.69996 2.90673 2.21316C2.60691 2.72366 2.45565 3.47321 2.45295 4.46181C2.45025 5.12357 2.51642 5.67999 2.65148 6.13107C2.78923 6.58215 2.98371 6.92249 3.23491 7.15208C3.48611 7.37897 3.78458 7.49241 4.13032 7.49241Z" fill="black"/>
</svg>
