<svg width="15" height="9" viewBox="0 0 15 9" fill="none" xmlns="http://www.w3.org/2000/svg">
<path d="M11.435 8.65155C11.038 8.64884 10.6504 8.57997 10.2722 8.44491C9.89406 8.30716 9.55372 8.08432 9.2512 7.7764C8.94868 7.46577 8.70829 7.05386 8.53002 6.54066C8.35175 6.02475 8.26396 5.38595 8.26666 4.62424C8.26666 3.91386 8.34229 3.28046 8.49355 2.72404C8.64481 2.16762 8.86225 1.69763 9.14586 1.31408C9.42947 0.927822 9.77116 0.633405 10.1709 0.430824C10.5734 0.228243 11.0231 0.126953 11.5201 0.126953C12.0414 0.126953 12.5033 0.229594 12.9058 0.434876C13.3109 0.640157 13.6378 0.921069 13.8862 1.27761C14.1347 1.63145 14.2887 2.03121 14.3481 2.47689H12.8693C12.7937 2.15816 12.6384 1.90426 12.4034 1.71519C12.1711 1.52341 11.8766 1.42752 11.5201 1.42752C10.9448 1.42752 10.5018 1.67737 10.1912 2.17707C9.88326 2.67677 9.72794 3.36284 9.72524 4.23529H9.78197C9.91432 3.99759 10.0858 3.79366 10.2965 3.6235C10.5072 3.45333 10.7449 3.32233 11.0096 3.23049C11.277 3.13595 11.5593 3.08868 11.8564 3.08868C12.3426 3.08868 12.7788 3.20483 13.1651 3.43712C13.554 3.66941 13.8619 3.98949 14.0888 4.39735C14.3157 4.80251 14.4278 5.2671 14.4251 5.79111C14.4278 6.33672 14.3036 6.82697 14.0524 7.26184C13.8012 7.69401 13.4514 8.03435 13.003 8.28285C12.5546 8.53135 12.032 8.65425 11.435 8.65155ZM11.4269 7.43606C11.7213 7.43606 11.9847 7.36448 12.217 7.22133C12.4493 7.07817 12.633 6.88504 12.768 6.64195C12.9031 6.39885 12.9692 6.12604 12.9665 5.82352C12.9692 5.5264 12.9044 5.25765 12.7721 5.01725C12.6424 4.77685 12.4628 4.58643 12.2332 4.44597C12.0036 4.30552 11.7416 4.23529 11.4472 4.23529C11.2284 4.23529 11.0245 4.27716 10.8354 4.36089C10.6463 4.44462 10.4815 4.56077 10.3411 4.70933C10.2006 4.85519 10.0899 5.02535 10.0089 5.21983C9.93052 5.41161 9.89001 5.61689 9.88731 5.83568C9.89001 6.12469 9.95754 6.39075 10.0899 6.63384C10.2222 6.87694 10.4046 7.07142 10.6369 7.21727C10.8691 7.36313 11.1325 7.43606 11.4269 7.43606Z" fill="black"/>
<path d="M3.852 8.69611C3.18483 8.69611 2.6122 8.5273 2.13411 8.18966C1.65872 7.84933 1.29273 7.35908 1.03613 6.71893C0.782224 6.07607 0.655273 5.30221 0.655273 4.39735C0.657975 3.49249 0.786276 2.72269 1.04018 2.08793C1.29678 1.45048 1.66277 0.964287 2.13816 0.629353C2.61625 0.29442 3.18753 0.126953 3.852 0.126953C4.51646 0.126953 5.08774 0.29442 5.56583 0.629353C6.04392 0.964287 6.40991 1.45048 6.66382 2.08793C6.92042 2.72539 7.04872 3.49519 7.04872 4.39735C7.04872 5.30491 6.92042 6.08012 6.66382 6.72298C6.40991 7.36313 6.04392 7.85203 5.56583 8.18966C5.09044 8.5273 4.51916 8.69611 3.852 8.69611ZM3.852 7.42796C4.3706 7.42796 4.77982 7.17271 5.07963 6.6622C5.38216 6.149 5.53342 5.39405 5.53342 4.39735C5.53342 3.73829 5.46454 3.18457 5.32678 2.73619C5.18903 2.28781 4.99455 1.95018 4.74335 1.72329C4.49215 1.4937 4.19503 1.3789 3.852 1.3789C3.33609 1.3789 2.92823 1.6355 2.62841 2.14871C2.32859 2.65921 2.17733 3.40876 2.17463 4.39735C2.17193 5.05912 2.2381 5.61554 2.37316 6.06662C2.51091 6.5177 2.70539 6.85803 2.95659 7.08762C3.20779 7.31451 3.50626 7.42796 3.852 7.42796Z" fill="black"/>
</svg>
