<svg width="14" height="9" viewBox="0 0 14 9" fill="none" xmlns="http://www.w3.org/2000/svg">
<path d="M8.40902 8.53598L11.938 1.551V1.49428H7.8418V0.238281H13.4938V1.52264L9.96889 8.53598H8.40902Z" fill="black"/>
<path d="M3.78461 8.69611C3.11745 8.69611 2.54482 8.5273 2.06673 8.18966C1.59134 7.84933 1.22534 7.35908 0.968742 6.71893C0.714841 6.07607 0.587891 5.30221 0.587891 4.39735C0.590592 3.49249 0.718893 2.72269 0.972794 2.08793C1.2294 1.45048 1.59539 0.964287 2.07078 0.629353C2.54887 0.29442 3.12015 0.126953 3.78461 0.126953C4.44908 0.126953 5.02036 0.29442 5.49845 0.629353C5.97654 0.964287 6.34253 1.45048 6.59643 2.08793C6.85303 2.72539 6.98134 3.49519 6.98134 4.39735C6.98134 5.30491 6.85303 6.08012 6.59643 6.72298C6.34253 7.36313 5.97654 7.85203 5.49845 8.18966C5.02306 8.5273 4.45178 8.69611 3.78461 8.69611ZM3.78461 7.42796C4.30322 7.42796 4.71243 7.17271 5.01225 6.6622C5.31477 6.149 5.46603 5.39405 5.46603 4.39735C5.46603 3.73829 5.39716 3.18457 5.2594 2.73619C5.12165 2.28781 4.92717 1.95018 4.67597 1.72329C4.42477 1.4937 4.12765 1.3789 3.78461 1.3789C3.26871 1.3789 2.86085 1.6355 2.56103 2.14871C2.26121 2.65921 2.10995 3.40876 2.10725 4.39735C2.10454 5.05912 2.17072 5.61554 2.30577 6.06662C2.44353 6.5177 2.63801 6.85803 2.88921 7.08762C3.14041 7.31451 3.43888 7.42796 3.78461 7.42796Z" fill="black"/>
</svg>
