<svg width="15" height="9" viewBox="0 0 15 9" fill="none" xmlns="http://www.w3.org/2000/svg">
<path d="M11.2856 8.65155C10.6833 8.65155 10.1485 8.55026 9.6812 8.34767C9.21662 8.14509 8.85197 7.86823 8.58727 7.51709C8.32526 7.16325 8.19561 6.76214 8.19831 6.31377C8.19561 5.96533 8.27124 5.64525 8.4252 5.35353C8.57916 5.06182 8.78715 4.81872 9.04915 4.62424C9.31386 4.42706 9.60827 4.30146 9.9324 4.24744V4.19072C9.50563 4.09618 9.15989 3.87875 8.89519 3.53841C8.63319 3.19537 8.50353 2.79967 8.50623 2.35129C8.50353 1.92452 8.62238 1.54367 8.86278 1.20873C9.10317 0.873801 9.4327 0.610445 9.85137 0.418669C10.27 0.224192 10.7481 0.126953 11.2856 0.126953C11.8178 0.126953 12.2918 0.224192 12.7078 0.418669C13.1264 0.610445 13.456 0.873801 13.6963 1.20873C13.9394 1.54367 14.061 1.92452 14.061 2.35129C14.061 2.79967 13.9273 3.19537 13.6599 3.53841C13.3952 3.87875 13.0535 4.09618 12.6348 4.19072V4.24744C12.959 4.30146 13.2507 4.42706 13.51 4.62424C13.772 4.81872 13.98 5.06182 14.1339 5.35353C14.2906 5.64525 14.3689 5.96533 14.3689 6.31377C14.3689 6.76214 14.2366 7.16325 13.9719 7.51709C13.7072 7.86823 13.3425 8.14509 12.8779 8.34767C12.416 8.55026 11.8853 8.65155 11.2856 8.65155ZM11.2856 7.49278C11.5963 7.49278 11.8664 7.44011 12.096 7.33477C12.3256 7.22673 12.5038 7.07547 12.6308 6.88099C12.7577 6.68651 12.8226 6.46232 12.8253 6.20842C12.8226 5.94372 12.7537 5.71007 12.6186 5.50749C12.4863 5.30221 12.3039 5.1415 12.0717 5.02535C11.8421 4.90921 11.5801 4.85113 11.2856 4.85113C10.9885 4.85113 10.7238 4.90921 10.4915 5.02535C10.2592 5.1415 10.0756 5.30221 9.94051 5.50749C9.80815 5.71007 9.74333 5.94372 9.74603 6.20842C9.74333 6.46232 9.80545 6.68651 9.9324 6.88099C10.0594 7.07277 10.2376 7.22268 10.4672 7.33072C10.6995 7.43876 10.9723 7.49278 11.2856 7.49278ZM11.2856 3.71263C11.5395 3.71263 11.7637 3.66131 11.9582 3.55867C12.1554 3.45603 12.3107 3.31287 12.4241 3.1292C12.5376 2.94552 12.5957 2.73349 12.5984 2.49309C12.5957 2.2554 12.5389 2.04742 12.4282 1.86915C12.3175 1.68817 12.1635 1.54907 11.9663 1.45183C11.7691 1.35189 11.5422 1.30192 11.2856 1.30192C11.0236 1.30192 10.7927 1.35189 10.5928 1.45183C10.3956 1.54907 10.2417 1.68817 10.1309 1.86915C10.0229 2.04742 9.97022 2.2554 9.97292 2.49309C9.97022 2.73349 10.0242 2.94552 10.135 3.1292C10.2484 3.31017 10.4037 3.45333 10.6009 3.55867C10.8008 3.66131 11.029 3.71263 11.2856 3.71263Z" fill="black"/>
<path d="M3.7934 8.69611C3.12624 8.69611 2.55361 8.5273 2.07552 8.18966C1.60013 7.84933 1.23413 7.35908 0.977531 6.71893C0.72363 6.07607 0.59668 5.30221 0.59668 4.39735C0.599381 3.49249 0.727682 2.72269 0.981583 2.08793C1.23819 1.45048 1.60418 0.964287 2.07957 0.629353C2.55766 0.29442 3.12894 0.126953 3.7934 0.126953C4.45787 0.126953 5.02914 0.29442 5.50723 0.629353C5.98532 0.964287 6.35132 1.45048 6.60522 2.08793C6.86182 2.72539 6.99013 3.49519 6.99013 4.39735C6.99013 5.30491 6.86182 6.08012 6.60522 6.72298C6.35132 7.36313 5.98532 7.85203 5.50723 8.18966C5.03185 8.5273 4.46057 8.69611 3.7934 8.69611ZM3.7934 7.42796C4.31201 7.42796 4.72122 7.17271 5.02104 6.6622C5.32356 6.149 5.47482 5.39405 5.47482 4.39735C5.47482 3.73829 5.40594 3.18457 5.26819 2.73619C5.13043 2.28781 4.93596 1.95018 4.68476 1.72329C4.43356 1.4937 4.13644 1.3789 3.7934 1.3789C3.2775 1.3789 2.86963 1.6355 2.56982 2.14871C2.27 2.65921 2.11874 3.40876 2.11603 4.39735C2.11333 5.05912 2.17951 5.61554 2.31456 6.06662C2.45232 6.5177 2.6468 6.85803 2.898 7.08762C3.1492 7.31451 3.44766 7.42796 3.7934 7.42796Z" fill="black"/>
</svg>
