<svg width="15" height="9" viewBox="0 0 15 9" fill="none" xmlns="http://www.w3.org/2000/svg">
<path d="M11.5537 0.127124C11.9508 0.129825 12.337 0.200053 12.7125 0.337808C13.0906 0.472862 13.431 0.69435 13.7335 1.00227C14.036 1.30749 14.2764 1.71671 14.4547 2.22991C14.6329 2.74311 14.7221 3.37787 14.7221 4.13417C14.7248 4.84725 14.6491 5.48471 14.4952 6.04653C14.3439 6.60565 14.1265 7.07834 13.8429 7.46459C13.5593 7.85085 13.2176 8.14526 12.8178 8.34785C12.4181 8.55043 11.9683 8.65172 11.4686 8.65172C10.9446 8.65172 10.48 8.54908 10.0749 8.34379C9.67241 8.13851 9.34693 7.8576 9.09843 7.50106C8.84994 7.14452 8.69733 6.73665 8.6406 6.27747H10.1194C10.1951 6.607 10.349 6.86901 10.5813 7.06348C10.8163 7.25526 11.1121 7.35115 11.4686 7.35115C12.044 7.35115 12.4869 7.1013 12.7976 6.6016C13.1082 6.1019 13.2635 5.40773 13.2635 4.51907H13.2068C13.0744 4.75677 12.9029 4.96205 12.6922 5.13492C12.4815 5.30508 12.2425 5.43609 11.9751 5.52792C11.7104 5.61976 11.4295 5.66568 11.1323 5.66568C10.6462 5.66568 10.2086 5.54953 9.81962 5.31724C9.43337 5.08495 9.1268 4.76622 8.89991 4.36106C8.67572 3.9559 8.56227 3.49266 8.55957 2.97136C8.55957 2.43114 8.68382 1.9463 8.93232 1.51683C9.18352 1.08465 9.53331 0.74432 9.98169 0.495821C10.4301 0.24462 10.9541 0.121721 11.5537 0.127124ZM11.5578 1.34261C11.266 1.34261 11.0027 1.41419 10.7677 1.55734C10.5354 1.6978 10.3517 1.88958 10.2167 2.13267C10.0843 2.37307 10.0182 2.64182 10.0182 2.93894C10.0209 3.23336 10.087 3.50077 10.2167 3.74116C10.349 3.98156 10.5287 4.17198 10.7555 4.31244C10.9851 4.4529 11.2471 4.52312 11.5416 4.52312C11.7603 4.52312 11.9643 4.48126 12.1534 4.39752C12.3424 4.31379 12.5072 4.19764 12.6476 4.04908C12.7908 3.89782 12.9015 3.72631 12.9799 3.53453C13.0609 3.34275 13.1001 3.14017 13.0974 2.92679C13.0974 2.64318 13.0299 2.38117 12.8948 2.14078C12.7624 1.90038 12.5801 1.70725 12.3478 1.56139C12.1182 1.41554 11.8549 1.34261 11.5578 1.34261Z" fill="black"/>
<path d="M4.13032 8.69611C3.46315 8.69611 2.89052 8.5273 2.41243 8.18966C1.93704 7.84933 1.57105 7.35908 1.31445 6.71893C1.06054 6.07607 0.933594 5.30221 0.933594 4.39735C0.936295 3.49249 1.0646 2.72269 1.3185 2.08793C1.5751 1.45048 1.94109 0.964287 2.41648 0.629353C2.89457 0.29442 3.46585 0.126953 4.13032 0.126953C4.79478 0.126953 5.36606 0.29442 5.84415 0.629353C6.32224 0.964287 6.68823 1.45048 6.94214 2.08793C7.19874 2.72539 7.32704 3.49519 7.32704 4.39735C7.32704 5.30491 7.19874 6.08012 6.94214 6.72298C6.68823 7.36313 6.32224 7.85203 5.84415 8.18966C5.36876 8.5273 4.79748 8.69611 4.13032 8.69611ZM4.13032 7.42796C4.64892 7.42796 5.05814 7.17271 5.35795 6.6622C5.66048 6.149 5.81174 5.39405 5.81174 4.39735C5.81174 3.73829 5.74286 3.18457 5.6051 2.73619C5.46735 2.28781 5.27287 1.95018 5.02167 1.72329C4.77047 1.4937 4.47335 1.3789 4.13032 1.3789C3.61441 1.3789 3.20655 1.6355 2.90673 2.14871C2.60691 2.65921 2.45565 3.40876 2.45295 4.39735C2.45025 5.05912 2.51642 5.61554 2.65148 6.06662C2.78923 6.5177 2.98371 6.85803 3.23491 7.08762C3.48611 7.31451 3.78458 7.42796 4.13032 7.42796Z" fill="black"/>
</svg>
