<svg width="13" height="9" viewBox="0 0 13 9" fill="none" xmlns="http://www.w3.org/2000/svg">
<path d="M9.24491 8.69647C8.66148 8.69647 8.14287 8.59653 7.68909 8.39665C7.23801 8.19677 6.88147 7.91856 6.61946 7.56202C6.35746 7.20547 6.21835 6.79356 6.20215 6.32627H7.72555C7.73906 6.55046 7.81334 6.74629 7.94839 6.91376C8.08345 7.07852 8.26307 7.20683 8.48726 7.29866C8.71145 7.3905 8.96265 7.43642 9.24086 7.43642C9.53798 7.43642 9.80133 7.3851 10.0309 7.28245C10.2605 7.17711 10.4401 7.03126 10.5698 6.84488C10.6994 6.65851 10.7629 6.44377 10.7602 6.20067C10.7629 5.94947 10.6981 5.72799 10.5657 5.53621C10.4334 5.34443 10.2416 5.19452 9.99041 5.08648C9.74191 4.97844 9.44209 4.92442 9.09095 4.92442H8.35761V3.76566H9.09095C9.37996 3.76566 9.63251 3.71569 9.8486 3.61575C10.0674 3.51581 10.2389 3.37535 10.3632 3.19438C10.4874 3.0107 10.5482 2.79867 10.5455 2.55827C10.5482 2.32328 10.4955 2.11935 10.3875 1.94648C10.2821 1.77091 10.1322 1.63451 9.93774 1.53727C9.74596 1.44003 9.52042 1.39141 9.26112 1.39141C9.00721 1.39141 8.77222 1.43733 8.55614 1.52917C8.34005 1.621 8.16583 1.752 8.03348 1.92217C7.90112 2.08964 7.8309 2.28952 7.82279 2.52181H6.37637C6.38717 2.05723 6.52088 1.64936 6.77748 1.29822C7.03678 0.944382 7.38252 0.668873 7.81469 0.471695C8.24686 0.271815 8.7317 0.171875 9.26922 0.171875C9.82294 0.171875 10.3037 0.275866 10.7116 0.483849C11.1222 0.689131 11.4395 0.965991 11.6637 1.31443C11.8879 1.66287 12 2.04777 12 2.46914C12.0027 2.93642 11.865 3.32808 11.5867 3.64411C11.3112 3.96013 10.9493 4.16677 10.5009 4.264V4.32883C11.0843 4.40986 11.5314 4.62595 11.842 4.97709C12.1553 5.32553 12.3106 5.75905 12.3079 6.27766C12.3079 6.74224 12.1756 7.15821 11.9109 7.52555C11.6489 7.8902 11.2869 8.17651 10.825 8.38449C10.3659 8.59248 9.83915 8.69647 9.24491 8.69647Z" fill="black"/>
<path d="M4.16046 0.285156V8.58286H2.65731V1.74779H2.60869L0.667969 2.98758V1.61003L2.73024 0.285156H4.16046Z" fill="black"/>
</svg>
