<svg width="13" height="9" viewBox="0 0 13 9" fill="none" xmlns="http://www.w3.org/2000/svg">
<path d="M9.58541 8.69647C9.18836 8.69377 8.80075 8.62489 8.4226 8.48984C8.04445 8.35208 7.70412 8.12924 7.40159 7.82132C7.09907 7.5107 6.85868 7.09878 6.68041 6.58558C6.50214 6.06967 6.41435 5.43087 6.41705 4.66917C6.41705 3.95878 6.49268 3.32538 6.64394 2.76896C6.7952 2.21254 7.01264 1.74255 7.29625 1.359C7.57987 0.972744 7.92155 0.678326 8.32131 0.475746C8.72377 0.273165 9.1735 0.171875 9.6705 0.171875C10.1918 0.171875 10.6537 0.274516 11.0561 0.479797C11.4613 0.685079 11.7881 0.965991 12.0366 1.32253C12.2851 1.67637 12.4391 2.07613 12.4985 2.52181H11.0197C10.9441 2.20308 10.7887 1.94918 10.5538 1.76011C10.3215 1.56833 10.027 1.47244 9.6705 1.47244C9.09517 1.47244 8.65219 1.72229 8.34157 2.22199C8.03365 2.72169 7.87833 3.40776 7.87563 4.28021H7.93236C8.06471 4.04252 8.23623 3.83858 8.44691 3.66842C8.65759 3.49825 8.89529 3.36725 9.15999 3.27541C9.4274 3.18087 9.70966 3.1336 10.0068 3.1336C10.493 3.1336 10.9292 3.24975 11.3155 3.48204C11.7044 3.71433 12.0123 4.03441 12.2392 4.44227C12.4661 4.84744 12.5782 5.31202 12.5755 5.83603C12.5782 6.38165 12.454 6.87189 12.2028 7.30676C11.9516 7.73894 11.6018 8.07927 11.1534 8.32777C10.705 8.57627 10.1824 8.69917 9.58541 8.69647ZM9.57731 7.48098C9.87173 7.48098 10.1351 7.40941 10.3674 7.26625C10.5997 7.12309 10.7833 6.92996 10.9184 6.68687C11.0534 6.44377 11.1196 6.17096 11.1169 5.86844C11.1196 5.57132 11.0548 5.30257 10.9224 5.06217C10.7928 4.82178 10.6132 4.63135 10.3836 4.49089C10.154 4.35044 9.89199 4.28021 9.59757 4.28021C9.37878 4.28021 9.17485 4.32208 8.98578 4.40581C8.7967 4.48954 8.63193 4.60569 8.49148 4.75425C8.35102 4.90011 8.24028 5.07027 8.15925 5.26475C8.08092 5.45653 8.0404 5.66181 8.0377 5.8806C8.0404 6.16961 8.10793 6.43567 8.24028 6.67876C8.37263 6.92186 8.55495 7.11634 8.78725 7.2622C9.01954 7.40805 9.28289 7.48098 9.57731 7.48098Z" fill="black"/>
<path d="M4.43975 0.285156V8.58286H2.93661V1.74779H2.88799L0.947266 2.98758V1.61003L3.00954 0.285156H4.43975Z" fill="black"/>
</svg>
