<svg width="13" height="10" viewBox="0 0 13 10" fill="none" xmlns="http://www.w3.org/2000/svg">
<path d="M9.21582 0.658374C9.61288 0.661075 9.99913 0.731303 10.3746 0.869058C10.7527 1.00411 11.0931 1.2256 11.3956 1.53352C11.6981 1.83874 11.9385 2.24796 12.1168 2.76116C12.295 3.27436 12.3842 3.90912 12.3842 4.66542C12.3869 5.3785 12.3113 6.01596 12.1573 6.57778C12.006 7.1369 11.7886 7.60959 11.505 7.99584C11.2214 8.3821 10.8797 8.67651 10.4799 8.8791C10.0802 9.08168 9.63044 9.18297 9.13074 9.18297C8.60673 9.18297 8.14214 9.08033 7.73698 8.87504C7.33452 8.66976 7.00904 8.38885 6.76054 8.03231C6.51205 7.67577 6.35943 7.2679 6.30271 6.80872H7.78155C7.85718 7.13825 8.01114 7.40026 8.24343 7.59473C8.47843 7.78651 8.7742 7.8824 9.13074 7.8824C9.70607 7.8824 10.149 7.63255 10.4597 7.13285C10.7703 6.63315 10.9256 5.93898 10.9256 5.05032H10.8689C10.7365 5.28802 10.565 5.4933 10.3543 5.66617C10.1436 5.83633 9.9046 5.96734 9.63719 6.05917C9.37248 6.15101 9.09157 6.19693 8.79445 6.19693C8.30826 6.19693 7.87069 6.08078 7.48173 5.84849C7.09548 5.6162 6.78891 5.29747 6.56202 4.89231C6.33783 4.48715 6.22438 4.02391 6.22168 3.50261C6.22168 2.96239 6.34593 2.47755 6.59443 2.04808C6.84563 1.6159 7.19542 1.27557 7.6438 1.02707C8.09217 0.77587 8.61618 0.652971 9.21582 0.658374ZM9.21987 1.87386C8.92816 1.87386 8.6648 1.94544 8.42981 2.08859C8.19752 2.22905 8.01384 2.42083 7.87879 2.66392C7.74644 2.90432 7.68026 3.17307 7.68026 3.47019C7.68296 3.76461 7.74914 4.03202 7.87879 4.27241C8.01114 4.51281 8.19076 4.70323 8.41765 4.84369C8.64724 4.98415 8.90925 5.05437 9.20367 5.05437C9.42245 5.05437 9.62638 5.01251 9.81546 4.92877C10.0045 4.84504 10.1693 4.72889 10.3098 4.58033C10.4529 4.42907 10.5637 4.25756 10.642 4.06578C10.723 3.874 10.7622 3.67142 10.7595 3.45804C10.7595 3.17443 10.692 2.91242 10.5569 2.67203C10.4246 2.43163 10.2422 2.2385 10.0099 2.09264C9.78035 1.94679 9.51699 1.87386 9.21987 1.87386Z" fill="black"/>
<path d="M4.22882 0.771484V9.06919H2.72567V2.23412H2.67705L0.736328 3.47391V2.09636L2.7986 0.771484H4.22882Z" fill="black"/>
</svg>
