<svg width="15" height="10" viewBox="0 0 15 10" fill="none" xmlns="http://www.w3.org/2000/svg">
<path d="M10.9399 9.22736C10.2727 9.22736 9.70009 9.05855 9.222 8.72091C8.74661 8.38058 8.38062 7.89033 8.12402 7.25018C7.87012 6.60732 7.74316 5.83346 7.74316 4.9286C7.74587 4.02374 7.87417 3.25394 8.12807 2.61918C8.38467 1.98173 8.75067 1.49554 9.22605 1.1606C9.70415 0.82567 10.2754 0.658203 10.9399 0.658203C11.6044 0.658203 12.1756 0.82567 12.6537 1.1606C13.1318 1.49554 13.4978 1.98173 13.7517 2.61918C14.0083 3.25664 14.1366 4.02644 14.1366 4.9286C14.1366 5.83616 14.0083 6.61137 13.7517 7.25423C13.4978 7.89438 13.1318 8.38328 12.6537 8.72091C12.1783 9.05855 11.6071 9.22736 10.9399 9.22736ZM10.9399 7.95921C11.4585 7.95921 11.8677 7.70396 12.1675 7.19345C12.47 6.68025 12.6213 5.9253 12.6213 4.9286C12.6213 4.26954 12.5524 3.71582 12.4147 3.26744C12.2769 2.81906 12.0824 2.48143 11.8312 2.25454C11.58 2.02495 11.2829 1.91015 10.9399 1.91015C10.424 1.91015 10.0161 2.16675 9.7163 2.67996C9.41648 3.19046 9.26522 3.94001 9.26252 4.9286C9.25982 5.59037 9.32599 6.14679 9.46105 6.59787C9.5988 7.04895 9.79328 7.38928 10.0445 7.61887C10.2957 7.84576 10.5941 7.95921 10.9399 7.95921Z" fill="black"/>
<path d="M0.785924 9.06935V7.98352L3.66662 5.15954C3.94213 4.88133 4.17172 4.63419 4.35539 4.4181C4.53907 4.20201 4.67682 3.99268 4.76866 3.7901C4.8605 3.58752 4.90641 3.37143 4.90641 3.14184C4.90641 2.87984 4.84699 2.65565 4.72814 2.46927C4.6093 2.2802 4.44588 2.13434 4.2379 2.0317C4.02991 1.92906 3.79357 1.87774 3.52887 1.87774C3.25606 1.87774 3.01701 1.93446 2.81173 2.04791C2.60645 2.15865 2.44709 2.31666 2.33364 2.52195C2.2229 2.72723 2.16752 2.97167 2.16752 3.25529H0.737305C0.737305 2.72858 0.857502 2.27074 1.0979 1.88179C1.33829 1.49283 1.66918 1.19167 2.09054 0.978281C2.51461 0.764896 3.00081 0.658203 3.54912 0.658203C4.10555 0.658203 4.59444 0.762195 5.01581 0.970177C5.43718 1.17816 5.76401 1.46312 5.9963 1.82507C6.23129 2.18701 6.34879 2.60028 6.34879 3.06486C6.34879 3.37548 6.28936 3.68071 6.17052 3.98053C6.05167 4.28034 5.84234 4.61258 5.54252 4.97722C5.2454 5.34187 4.82808 5.78349 4.29057 6.3021L2.86035 7.75663V7.81335H6.47439V9.06935H0.785924Z" fill="black"/>
</svg>
