<svg width="14" height="10" viewBox="0 0 14 10" fill="none" xmlns="http://www.w3.org/2000/svg">
<path d="M10.1277 9.1828C9.54429 9.1828 9.02568 9.08286 8.5719 8.88298C8.12082 8.6831 7.76428 8.40489 7.50228 8.04834C7.24027 7.6918 7.10117 7.27989 7.08496 6.8126H8.60837C8.62187 7.03679 8.69615 7.23262 8.83121 7.40009C8.96626 7.56485 9.14588 7.69315 9.37007 7.78499C9.59426 7.87683 9.84546 7.92274 10.1237 7.92274C10.4208 7.92274 10.6841 7.87142 10.9137 7.76878C11.1433 7.66344 11.3229 7.51758 11.4526 7.33121C11.5823 7.14483 11.6457 6.9301 11.643 6.687C11.6457 6.4358 11.5809 6.21431 11.4485 6.02254C11.3162 5.83076 11.1244 5.68085 10.8732 5.57281C10.6247 5.46477 10.3249 5.41074 9.97376 5.41074H9.24042V4.25198H9.97376C10.2628 4.25198 10.5153 4.20201 10.7314 4.10207C10.9502 4.00213 11.1217 3.86168 11.246 3.68071C11.3702 3.49703 11.431 3.285 11.4283 3.0446C11.431 2.80961 11.3783 2.60568 11.2703 2.43281C11.1649 2.25724 11.015 2.12084 10.8205 2.0236C10.6288 1.92636 10.4032 1.87774 10.1439 1.87774C9.89003 1.87774 9.65503 1.92366 9.43895 2.01549C9.22286 2.10733 9.04864 2.23833 8.91629 2.4085C8.78394 2.57597 8.71371 2.77585 8.70561 3.00814H7.25918C7.26998 2.54355 7.40369 2.13569 7.66029 1.78455C7.91959 1.43071 8.26533 1.1552 8.6975 0.958023C9.12967 0.758143 9.61452 0.658203 10.152 0.658203C10.7058 0.658203 11.1865 0.762195 11.5944 0.970177C12.005 1.17546 12.3223 1.45232 12.5465 1.80076C12.7707 2.1492 12.8828 2.5341 12.8828 2.95547C12.8855 3.42275 12.7478 3.81441 12.4696 4.13044C12.194 4.44646 11.8321 4.65309 11.3837 4.75033V4.81516C11.9672 4.89619 12.4142 5.11228 12.7248 5.46342C13.0381 5.81185 13.1934 6.24538 13.1907 6.76398C13.1907 7.22857 13.0584 7.64453 12.7937 8.01188C12.5317 8.37653 12.1697 8.66284 11.7079 8.87082C11.2487 9.0788 10.722 9.1828 10.1277 9.1828Z" fill="black"/>
<path d="M0.0642444 9.06935V7.98352L2.94494 5.15954C3.22045 4.88133 3.45004 4.63419 3.63371 4.4181C3.81739 4.20201 3.95514 3.99268 4.04698 3.7901C4.13882 3.58752 4.18473 3.37143 4.18473 3.14184C4.18473 2.87984 4.12531 2.65565 4.00646 2.46927C3.88762 2.2802 3.7242 2.13434 3.51622 2.0317C3.30823 1.92906 3.07189 1.87774 2.80719 1.87774C2.53438 1.87774 2.29533 1.93446 2.09005 2.04791C1.88477 2.15865 1.72541 2.31666 1.61196 2.52195C1.50122 2.72723 1.44584 2.97167 1.44584 3.25529H0.015625C0.015625 2.72858 0.135823 2.27074 0.376218 1.88179C0.616614 1.49283 0.947496 1.19167 1.36886 0.978281C1.79293 0.764896 2.27913 0.658203 2.82744 0.658203C3.38387 0.658203 3.87276 0.762195 4.29413 0.970177C4.7155 1.17816 5.04233 1.46312 5.27462 1.82507C5.50961 2.18701 5.62711 2.60028 5.62711 3.06486C5.62711 3.37548 5.56768 3.68071 5.44884 3.98053C5.32999 4.28034 5.12066 4.61258 4.82084 4.97722C4.52372 5.34187 4.1064 5.78349 3.56889 6.3021L2.13867 7.75663V7.81335H5.75271V9.06935H0.0642444Z" fill="black"/>
</svg>
