<svg width="14" height="10" viewBox="0 0 14 10" fill="none" xmlns="http://www.w3.org/2000/svg">
<path d="M10.978 9.41131C10.5809 9.40861 10.1933 9.33973 9.81518 9.20468C9.43703 9.06693 9.09669 8.84409 8.79417 8.53616C8.49165 8.22554 8.25126 7.81363 8.07299 7.30042C7.89472 6.78452 7.80693 6.14571 7.80963 5.38401C7.80963 4.67363 7.88526 4.04022 8.03652 3.4838C8.18778 2.92738 8.40522 2.45739 8.68883 2.07384C8.97244 1.68759 9.31413 1.39317 9.71389 1.19059C10.1163 0.988009 10.5661 0.886719 11.0631 0.886719C11.5844 0.886719 12.0463 0.98936 12.4487 1.19464C12.8539 1.39992 13.1807 1.68083 13.4292 2.03738C13.6777 2.39122 13.8317 2.79098 13.8911 3.23665H12.4123C12.3366 2.91793 12.1813 2.66403 11.9463 2.47495C11.714 2.28317 11.4196 2.18729 11.0631 2.18729C10.4877 2.18729 10.0448 2.43714 9.73415 2.93683C9.42622 3.43653 9.27091 4.12261 9.26821 4.99505H9.32493C9.45729 4.75736 9.62881 4.55343 9.83949 4.38326C10.0502 4.21309 10.2879 4.08209 10.5526 3.99025C10.82 3.89572 11.1022 3.84845 11.3994 3.84845C11.8856 3.84845 12.3218 3.96459 12.708 4.19689C13.097 4.42918 13.4049 4.74926 13.6318 5.15712C13.8587 5.56228 13.9708 6.02686 13.9681 6.55087C13.9708 7.09649 13.8465 7.58674 13.5953 8.02161C13.3441 8.45378 12.9943 8.79412 12.546 9.04261C12.0976 9.29111 11.5749 9.41401 10.978 9.41131ZM10.9699 8.19583C11.2643 8.19583 11.5277 8.12425 11.76 7.98109C11.9922 7.83794 12.1759 7.64481 12.311 7.40171C12.446 7.15861 12.5122 6.88581 12.5095 6.58329C12.5122 6.28617 12.4474 6.01741 12.315 5.77702C12.1854 5.53662 12.0058 5.34619 11.7762 5.20574C11.5466 5.06528 11.2846 4.99505 10.9901 4.99505C10.7714 4.99505 10.5674 5.03692 10.3784 5.12065C10.1893 5.20439 10.0245 5.32053 9.88406 5.46909C9.7436 5.61495 9.63286 5.78512 9.55182 5.9796C9.47349 6.17137 9.43298 6.37665 9.43028 6.59544C9.43298 6.88446 9.5005 7.15051 9.63286 7.39361C9.76521 7.63671 9.94753 7.83118 10.1798 7.97704C10.4121 8.1229 10.6755 8.19583 10.9699 8.19583Z" fill="black"/>
<path d="M0.85233 9.29787V8.21204L3.73303 5.38806C4.00854 5.10985 4.23813 4.8627 4.4218 4.64662C4.60547 4.43053 4.74323 4.2212 4.83507 4.01862C4.9269 3.81603 4.97282 3.59995 4.97282 3.37036C4.97282 3.10835 4.9134 2.88416 4.79455 2.69779C4.6757 2.50871 4.51229 2.36286 4.3043 2.26022C4.09632 2.15757 3.85998 2.10625 3.59527 2.10625C3.32246 2.10625 3.08342 2.16298 2.87814 2.27642C2.67285 2.38717 2.51349 2.54518 2.40005 2.75046C2.2893 2.95574 2.23393 3.20019 2.23393 3.4838H0.803711C0.803711 2.95709 0.923909 2.49926 1.1643 2.11031C1.4047 1.72135 1.73558 1.42018 2.15695 1.2068C2.58102 0.993411 3.06721 0.886719 3.61553 0.886719C4.17195 0.886719 4.66085 0.99071 5.08221 1.19869C5.50358 1.40668 5.83041 1.69164 6.0627 2.05358C6.2977 2.41553 6.41519 2.82879 6.41519 3.29338C6.41519 3.604 6.35577 3.90922 6.23692 4.20904C6.11808 4.50886 5.90874 4.84109 5.60892 5.20574C5.3118 5.57038 4.89449 6.01201 4.35698 6.53062L2.92676 7.98514V8.04187H6.54079V9.29787H0.85233Z" fill="black"/>
</svg>
