<svg width="14" height="10" viewBox="0 0 14 10" fill="none" xmlns="http://www.w3.org/2000/svg">
<path d="M8.17465 9.2977L11.7036 2.31272V2.256H7.60742V1H13.2594V2.28436L9.73452 9.2977H8.17465Z" fill="black"/>
<path d="M0.785924 9.29787V8.21204L3.66662 5.38806C3.94213 5.10985 4.17172 4.8627 4.35539 4.64662C4.53907 4.43053 4.67682 4.2212 4.76866 4.01862C4.8605 3.81603 4.90641 3.59995 4.90641 3.37036C4.90641 3.10835 4.84699 2.88416 4.72814 2.69779C4.6093 2.50871 4.44588 2.36286 4.2379 2.26022C4.02991 2.15757 3.79357 2.10625 3.52887 2.10625C3.25606 2.10625 3.01701 2.16298 2.81173 2.27642C2.60645 2.38717 2.44709 2.54518 2.33364 2.75046C2.2229 2.95574 2.16752 3.20019 2.16752 3.4838H0.737305C0.737305 2.95709 0.857502 2.49926 1.0979 2.11031C1.33829 1.72135 1.66918 1.42018 2.09054 1.2068C2.51461 0.993411 3.00081 0.886719 3.54912 0.886719C4.10555 0.886719 4.59444 0.99071 5.01581 1.19869C5.43718 1.40668 5.76401 1.69164 5.9963 2.05358C6.23129 2.41553 6.34879 2.82879 6.34879 3.29338C6.34879 3.604 6.28936 3.90922 6.17052 4.20904C6.05167 4.50886 5.84234 4.84109 5.54252 5.20574C5.2454 5.57038 4.82808 6.01201 4.29057 6.53062L2.86035 7.98514V8.04187H6.47439V9.29787H0.785924Z" fill="black"/>
</svg>
