<svg width="14" height="10" viewBox="0 0 14 10" fill="none" xmlns="http://www.w3.org/2000/svg">
<path d="M10.7524 9.41131C10.1501 9.41131 9.61529 9.31002 9.148 9.10744C8.68341 8.90486 8.31877 8.628 8.05406 8.27686C7.79206 7.92302 7.66241 7.52191 7.66511 7.07353C7.66241 6.72509 7.73804 6.40502 7.892 6.1133C8.04596 5.82158 8.25394 5.57849 8.51595 5.38401C8.78065 5.18683 9.07507 5.06123 9.3992 5.00721V4.95049C8.97243 4.85595 8.62669 4.63851 8.36199 4.29818C8.09998 3.95514 7.97033 3.55943 7.97303 3.11105C7.97033 2.68428 8.08918 2.30343 8.32957 1.9685C8.56997 1.63357 8.8995 1.37021 9.31817 1.17843C9.73683 0.983957 10.2149 0.886719 10.7524 0.886719C11.2845 0.886719 11.7586 0.983957 12.1746 1.17843C12.5932 1.37021 12.9228 1.63357 13.1631 1.9685C13.4062 2.30343 13.5278 2.68428 13.5278 3.11105C13.5278 3.55943 13.3941 3.95514 13.1267 4.29818C12.862 4.63851 12.5203 4.85595 12.1016 4.95049V5.00721C12.4258 5.06123 12.7175 5.18683 12.9768 5.38401C13.2388 5.57849 13.4468 5.82158 13.6007 6.1133C13.7574 6.40502 13.8357 6.72509 13.8357 7.07353C13.8357 7.52191 13.7034 7.92302 13.4387 8.27686C13.174 8.628 12.8093 8.90486 12.3447 9.10744C11.8828 9.31002 11.3521 9.41131 10.7524 9.41131ZM10.7524 8.25255C11.0631 8.25255 11.3332 8.19988 11.5628 8.09454C11.7924 7.98649 11.9706 7.83523 12.0976 7.64076C12.2245 7.44628 12.2893 7.22209 12.2921 6.96819C12.2893 6.70348 12.2205 6.46984 12.0854 6.26726C11.9531 6.06198 11.7707 5.90126 11.5385 5.78512C11.3089 5.66897 11.0469 5.6109 10.7524 5.6109C10.4553 5.6109 10.1906 5.66897 9.95832 5.78512C9.72603 5.90126 9.54236 6.06198 9.4073 6.26726C9.27495 6.46984 9.21012 6.70348 9.21283 6.96819C9.21012 7.22209 9.27225 7.44628 9.3992 7.64076C9.52615 7.83253 9.70442 7.98244 9.93401 8.09049C10.1663 8.19853 10.4391 8.25255 10.7524 8.25255ZM10.7524 4.4724C11.0063 4.4724 11.2305 4.42108 11.425 4.31843C11.6222 4.21579 11.7775 4.07264 11.8909 3.88896C12.0044 3.70529 12.0625 3.49326 12.0652 3.25286C12.0625 3.01517 12.0057 2.80718 11.895 2.62891C11.7842 2.44794 11.6303 2.30883 11.4331 2.2116C11.2359 2.11166 11.009 2.06169 10.7524 2.06169C10.4904 2.06169 10.2595 2.11166 10.0596 2.2116C9.86243 2.30883 9.70847 2.44794 9.59773 2.62891C9.48969 2.80718 9.43701 3.01517 9.43972 3.25286C9.43701 3.49326 9.49104 3.70529 9.60178 3.88896C9.71522 4.06994 9.87054 4.21309 10.0677 4.31843C10.2676 4.42108 10.4958 4.4724 10.7524 4.4724Z" fill="black"/>
<path d="M0.716588 9.29787V8.21204L3.59728 5.38806C3.87279 5.10985 4.10239 4.8627 4.28606 4.64662C4.46973 4.43053 4.60749 4.2212 4.69932 4.01862C4.79116 3.81603 4.83708 3.59995 4.83708 3.37036C4.83708 3.10835 4.77765 2.88416 4.65881 2.69779C4.53996 2.50871 4.37654 2.36286 4.16856 2.26022C3.96058 2.15757 3.72424 2.10625 3.45953 2.10625C3.18672 2.10625 2.94768 2.16298 2.74239 2.27642C2.53711 2.38717 2.37775 2.54518 2.2643 2.75046C2.15356 2.95574 2.09819 3.20019 2.09819 3.4838H0.667969C0.667969 2.95709 0.788167 2.49926 1.02856 2.11031C1.26896 1.72135 1.59984 1.42018 2.02121 1.2068C2.44528 0.993411 2.93147 0.886719 3.47979 0.886719C4.03621 0.886719 4.5251 0.99071 4.94647 1.19869C5.36784 1.40668 5.69467 1.69164 5.92696 2.05358C6.16196 2.41553 6.27945 2.82879 6.27945 3.29338C6.27945 3.604 6.22003 3.90922 6.10118 4.20904C5.98233 4.50886 5.773 4.84109 5.47318 5.20574C5.17606 5.57038 4.75875 6.01201 4.22123 6.53062L2.79101 7.98514V8.04187H6.40505V9.29787H0.716588Z" fill="black"/>
</svg>
