<svg width="14" height="10" viewBox="0 0 14 10" fill="none" xmlns="http://www.w3.org/2000/svg">
<path d="M10.6924 0.886889C11.0894 0.889591 11.4757 0.959818 11.8511 1.09757C12.2293 1.23263 12.5696 1.45412 12.8722 1.76204C13.1747 2.06726 13.4151 2.47647 13.5933 2.98968C13.7716 3.50288 13.8607 4.13763 13.8607 4.89393C13.8634 5.60702 13.7878 6.24447 13.6339 6.80629C13.4826 7.36542 13.2652 7.83811 12.9815 8.22436C12.6979 8.61061 12.3562 8.90503 11.9565 9.10761C11.5567 9.31019 11.107 9.41148 10.6073 9.41148C10.0833 9.41148 9.61871 9.30884 9.21355 9.10356C8.81108 8.89828 8.48561 8.61737 8.23711 8.26082C7.98861 7.90428 7.836 7.49642 7.77927 7.03724H9.25811C9.33374 7.36677 9.4877 7.62877 9.72 7.82325C9.95499 8.01503 10.2508 8.11091 10.6073 8.11091C11.1826 8.11091 11.6256 7.86107 11.9362 7.36137C12.2469 6.86167 12.4022 6.16749 12.4022 5.27884H12.3454C12.2131 5.51653 12.0416 5.72181 11.8309 5.89468C11.6202 6.06485 11.3812 6.19585 11.1138 6.28769C10.849 6.37953 10.5681 6.42544 10.271 6.42544C9.78482 6.42544 9.34725 6.3093 8.95829 6.077C8.57204 5.84471 8.26547 5.52599 8.03858 5.12082C7.81439 4.71566 7.70094 4.25243 7.69824 3.73112C7.69824 3.19091 7.82249 2.70606 8.07099 2.27659C8.32219 1.84442 8.67198 1.50409 9.12036 1.25559C9.56874 1.00439 10.0927 0.881487 10.6924 0.886889ZM10.6964 2.10237C10.4047 2.10237 10.1414 2.17395 9.90637 2.31711C9.67408 2.45756 9.49041 2.64934 9.35535 2.89244C9.223 3.13283 9.15682 3.40159 9.15682 3.69871C9.15952 3.99313 9.2257 4.26053 9.35535 4.50093C9.4877 4.74132 9.66733 4.93175 9.89422 5.07221C10.1238 5.21266 10.3858 5.28289 10.6802 5.28289C10.899 5.28289 11.1029 5.24102 11.292 5.15729C11.4811 5.07356 11.6459 4.95741 11.7863 4.80885C11.9295 4.65759 12.0402 4.48607 12.1186 4.2943C12.1996 4.10252 12.2387 3.89994 12.236 3.68655C12.236 3.40294 12.1685 3.14094 12.0335 2.90054C11.9011 2.66015 11.7188 2.46702 11.4865 2.32116C11.2569 2.1753 10.9936 2.10237 10.6964 2.10237Z" fill="black"/>
<path d="M0.725377 9.29787V8.21204L3.60607 5.38806C3.88158 5.10985 4.11117 4.8627 4.29485 4.64662C4.47852 4.43053 4.61628 4.2212 4.70811 4.01862C4.79995 3.81603 4.84587 3.59995 4.84587 3.37036C4.84587 3.10835 4.78644 2.88416 4.6676 2.69779C4.54875 2.50871 4.38533 2.36286 4.17735 2.26022C3.96937 2.15757 3.73302 2.10625 3.46832 2.10625C3.19551 2.10625 2.95647 2.16298 2.75118 2.27642C2.5459 2.38717 2.38654 2.54518 2.27309 2.75046C2.16235 2.95574 2.10698 3.20019 2.10698 3.4838H0.676758C0.676758 2.95709 0.796956 2.49926 1.03735 2.11031C1.27775 1.72135 1.60863 1.42018 2.03 1.2068C2.45407 0.993411 2.94026 0.886719 3.48858 0.886719C4.045 0.886719 4.53389 0.99071 4.95526 1.19869C5.37663 1.40668 5.70346 1.69164 5.93575 2.05358C6.17074 2.41553 6.28824 2.82879 6.28824 3.29338C6.28824 3.604 6.22882 3.90922 6.10997 4.20904C5.99112 4.50886 5.78179 4.84109 5.48197 5.20574C5.18485 5.57038 4.76754 6.01201 4.23002 6.53062L2.7998 7.98514V8.04187H6.41384V9.29787H0.725377Z" fill="black"/>
</svg>
