<svg width="14" height="10" viewBox="0 0 14 10" fill="none" xmlns="http://www.w3.org/2000/svg">
<path d="M10.7529 0.619311C11.15 0.622012 11.5362 0.69224 11.9117 0.829995C12.2898 0.965049 12.6302 1.18654 12.9327 1.49446C13.2352 1.79968 13.4756 2.20889 13.6539 2.7221C13.8322 3.2353 13.9213 3.87006 13.9213 4.62636C13.924 5.33944 13.8484 5.97689 13.6944 6.53872C13.5431 7.09784 13.3257 7.57053 13.0421 7.95678C12.7585 8.34304 12.4168 8.63745 12.017 8.84003C11.6173 9.04261 11.1675 9.1439 10.6678 9.1439C10.1438 9.1439 9.67925 9.04126 9.27409 8.83598C8.87163 8.6307 8.54615 8.34979 8.29765 7.99325C8.04915 7.6367 7.89654 7.22884 7.83982 6.76966H9.31866C9.39429 7.09919 9.54825 7.36119 9.78054 7.55567C10.0155 7.74745 10.3113 7.84334 10.6678 7.84334C11.2432 7.84334 11.6862 7.59349 11.9968 7.09379C12.3074 6.59409 12.4627 5.89991 12.4627 5.01126H12.406C12.2736 5.24895 12.1021 5.45424 11.8914 5.6271C11.6808 5.79727 11.4417 5.92827 11.1743 6.02011C10.9096 6.11195 10.6287 6.15787 10.3316 6.15787C9.84537 6.15787 9.4078 6.04172 9.01884 5.80943C8.63259 5.57713 8.32601 5.25841 8.09912 4.85325C7.87494 4.44809 7.76149 3.98485 7.75879 3.46354C7.75879 2.92333 7.88304 2.43849 8.13154 2.00901C8.38274 1.57684 8.73253 1.23651 9.1809 0.988008C9.62928 0.736808 10.1533 0.613909 10.7529 0.619311ZM10.757 1.8348C10.4653 1.8348 10.2019 1.90637 9.96692 2.04953C9.73463 2.18999 9.55095 2.38176 9.4159 2.62486C9.28355 2.86526 9.21737 3.13401 9.21737 3.43113C9.22007 3.72555 9.28625 3.99295 9.4159 4.23335C9.54825 4.47374 9.72787 4.66417 9.95476 4.80463C10.1844 4.94508 10.4464 5.01531 10.7408 5.01531C10.9596 5.01531 11.1635 4.97344 11.3526 4.88971C11.5416 4.80598 11.7064 4.68983 11.8469 4.54127C11.99 4.39001 12.1008 4.21849 12.1791 4.02672C12.2601 3.83494 12.2993 3.63236 12.2966 3.41898C12.2966 3.13536 12.2291 2.87336 12.094 2.63296C11.9617 2.39257 11.7793 2.19944 11.547 2.05358C11.3175 1.90772 11.0541 1.8348 10.757 1.8348Z" fill="#B8B8B8"/>
<path d="M0.785924 9.03029V7.94446L3.66662 5.12048C3.94213 4.84227 4.17172 4.59512 4.35539 4.37904C4.53907 4.16295 4.67682 3.95362 4.76866 3.75104C4.8605 3.54846 4.90641 3.33237 4.90641 3.10278C4.90641 2.84077 4.84699 2.61659 4.72814 2.43021C4.6093 2.24114 4.44588 2.09528 4.2379 1.99264C4.02991 1.89 3.79357 1.83868 3.52887 1.83868C3.25606 1.83868 3.01701 1.8954 2.81173 2.00884C2.60645 2.11959 2.44709 2.2776 2.33364 2.48288C2.2229 2.68816 2.16752 2.93261 2.16752 3.21622H0.737305C0.737305 2.68951 0.857502 2.23168 1.0979 1.84273C1.33829 1.45377 1.66918 1.1526 2.09054 0.939218C2.51461 0.725833 3.00081 0.619141 3.54912 0.619141C4.10555 0.619141 4.59444 0.723132 5.01581 0.931115C5.43718 1.1391 5.76401 1.42406 5.9963 1.78601C6.23129 2.14795 6.34879 2.56121 6.34879 3.0258C6.34879 3.33642 6.28936 3.64164 6.17052 3.94146C6.05167 4.24128 5.84234 4.57352 5.54252 4.93816C5.2454 5.30281 4.82808 5.74443 4.29057 6.26304L2.86035 7.71757V7.77429H6.47439V9.03029H0.785924Z" fill="#B8B8B8"/>
</svg>
