<svg width="14" height="10" viewBox="0 0 14 10" fill="none" xmlns="http://www.w3.org/2000/svg">
<path d="M10.5639 9.45588C9.89674 9.45588 9.32412 9.28706 8.84603 8.94943C8.37064 8.60909 8.00464 8.11885 7.74804 7.47869C7.49414 6.83584 7.36719 6.06198 7.36719 5.15712C7.36989 4.25226 7.49819 3.48245 7.75209 2.8477C8.00869 2.21025 8.37469 1.72405 8.85008 1.38912C9.32817 1.05419 9.89945 0.886719 10.5639 0.886719C11.2284 0.886719 11.7997 1.05419 12.2777 1.38912C12.7558 1.72405 13.1218 2.21025 13.3757 2.8477C13.6323 3.48515 13.7606 4.25496 13.7606 5.15712C13.7606 6.06468 13.6323 6.83989 13.3757 7.48274C13.1218 8.1229 12.7558 8.61179 12.2777 8.94943C11.8024 9.28706 11.2311 9.45588 10.5639 9.45588ZM10.5639 8.18772C11.0825 8.18772 11.4917 7.93247 11.7915 7.42197C12.0941 6.90877 12.2453 6.15382 12.2453 5.15712C12.2453 4.49806 12.1765 3.94434 12.0387 3.49596C11.9009 3.04758 11.7065 2.70994 11.4553 2.48305C11.2041 2.25346 10.9069 2.13867 10.5639 2.13867C10.048 2.13867 9.64014 2.39527 9.34032 2.90847C9.0405 3.41898 8.88924 4.16852 8.88654 5.15712C8.88384 5.81888 8.95002 6.3753 9.08507 6.82638C9.22283 7.27746 9.4173 7.6178 9.6685 7.84739C9.9197 8.07428 10.2182 8.18772 10.5639 8.18772Z" fill="black"/>
<path d="M3.04276 9.41131C2.45933 9.41131 1.94072 9.31137 1.48694 9.11149C1.03586 8.91161 0.67932 8.6334 0.417316 8.27686C0.155312 7.92032 0.0162064 7.5084 0 7.04112H1.52341C1.53691 7.26531 1.61119 7.46114 1.74624 7.6286C1.8813 7.79337 2.06092 7.92167 2.28511 8.01351C2.5093 8.10534 2.7605 8.15126 3.03871 8.15126C3.33583 8.15126 3.59918 8.09994 3.82877 7.9973C4.05837 7.89196 4.23799 7.7461 4.36764 7.55972C4.49729 7.37335 4.56077 7.15862 4.55806 6.91552C4.56077 6.66432 4.49594 6.44283 4.36359 6.25105C4.23123 6.05928 4.03946 5.90937 3.78826 5.80132C3.53976 5.69328 3.23994 5.63926 2.8888 5.63926H2.15546V4.4805H2.8888C3.17781 4.4805 3.43037 4.43053 3.64645 4.33059C3.86524 4.23065 4.03676 4.09019 4.16101 3.90922C4.28526 3.72555 4.34603 3.51351 4.34333 3.27312C4.34603 3.03813 4.29336 2.83419 4.18532 2.66133C4.07997 2.48576 3.93006 2.34935 3.73559 2.25211C3.54381 2.15487 3.31827 2.10625 3.05897 2.10625C2.80507 2.10625 2.57007 2.15217 2.35399 2.24401C2.1379 2.33585 1.96368 2.46685 1.83133 2.63702C1.69898 2.80448 1.62875 3.00436 1.62065 3.23665H0.174219C0.185024 2.77207 0.318727 2.36421 0.575329 2.01307C0.834632 1.65923 1.18037 1.38372 1.61254 1.18654C2.04471 0.986659 2.52956 0.886719 3.06707 0.886719C3.62079 0.886719 4.10158 0.99071 4.50944 1.19869C4.92001 1.40397 5.23738 1.68083 5.46157 2.02927C5.68576 2.37771 5.79786 2.76261 5.79786 3.18398C5.80056 3.65127 5.6628 4.04293 5.38459 4.35895C5.10908 4.67498 4.74714 4.88161 4.29876 4.97885V5.04367C4.88219 5.12471 5.32922 5.34079 5.63984 5.69193C5.95317 6.04037 6.10848 6.47389 6.10578 6.9925C6.10578 7.45708 5.97343 7.87305 5.70872 8.2404C5.44672 8.60504 5.08477 8.89135 4.62289 9.09934C4.16371 9.30732 3.637 9.41131 3.04276 9.41131Z" fill="black"/>
</svg>
