<svg width="15" height="9" viewBox="0 0 15 9" fill="none" xmlns="http://www.w3.org/2000/svg">
<path d="M11.2153 8.76057C10.5481 8.76057 9.97548 8.59175 9.49739 8.25412C9.022 7.91378 8.65601 7.42353 8.39941 6.78338C8.14551 6.14052 8.01855 5.36667 8.01855 4.46181C8.02126 3.55695 8.14956 2.78714 8.40346 2.15239C8.66006 1.51493 9.02606 1.02874 9.50145 0.693807C9.97954 0.358873 10.5508 0.191406 11.2153 0.191406C11.8797 0.191406 12.451 0.358873 12.9291 0.693807C13.4072 1.02874 13.7732 1.51493 14.0271 2.15239C14.2837 2.78984 14.412 3.55965 14.412 4.46181C14.412 5.36937 14.2837 6.14458 14.0271 6.78743C13.7732 7.42759 13.4072 7.91648 12.9291 8.25412C12.4537 8.59175 11.8824 8.76057 11.2153 8.76057ZM11.2153 7.49241C11.7339 7.49241 12.1431 7.23716 12.4429 6.72666C12.7454 6.21345 12.8967 5.4585 12.8967 4.46181C12.8967 3.80274 12.8278 3.24902 12.6901 2.80064C12.5523 2.35227 12.3578 2.01463 12.1066 1.78774C11.8554 1.55815 11.5583 1.44335 11.2153 1.44335C10.6994 1.44335 10.2915 1.69996 9.99169 2.21316C9.69187 2.72366 9.54061 3.47321 9.53791 4.46181C9.53521 5.12357 9.60138 5.67999 9.73644 6.13107C9.87419 6.58215 10.0687 6.92249 10.3199 7.15208C10.5711 7.37897 10.8695 7.49241 11.2153 7.49241Z" fill="#B8B8B8"/>
<path d="M3.6951 8.716C3.11167 8.716 2.59307 8.61606 2.13929 8.41618C1.68821 8.2163 1.33166 7.93809 1.06966 7.58155C0.807655 7.22501 0.66855 6.81309 0.652344 6.34581H2.17575C2.18926 6.56999 2.26353 6.76582 2.39859 6.93329C2.53364 7.09805 2.71326 7.22636 2.93745 7.31819C3.16164 7.41003 3.41284 7.45595 3.69105 7.45595C3.98817 7.45595 4.25153 7.40463 4.48112 7.30199C4.71071 7.19664 4.89033 7.05079 5.01998 6.86441C5.14963 6.67804 5.21311 6.4633 5.21041 6.22021C5.21311 5.96901 5.14828 5.74752 5.01593 5.55574C4.88358 5.36396 4.6918 5.21406 4.4406 5.10601C4.1921 4.99797 3.89228 4.94395 3.54114 4.94395H2.8078V3.78519H3.54114C3.83016 3.78519 4.08271 3.73522 4.2988 3.63528C4.51758 3.53534 4.6891 3.39488 4.81335 3.21391C4.9376 3.03024 4.99837 2.8182 4.99567 2.57781C4.99837 2.34281 4.9457 2.13888 4.83766 1.96601C4.73232 1.79044 4.58241 1.65404 4.38793 1.5568C4.19615 1.45956 3.97061 1.41094 3.71131 1.41094C3.45741 1.41094 3.22242 1.45686 3.00633 1.5487C2.79024 1.64053 2.61603 1.77154 2.48367 1.9417C2.35132 2.10917 2.28109 2.30905 2.27299 2.54134H0.826563C0.837367 2.07676 0.971071 1.66889 1.22767 1.31775C1.48698 0.963914 1.83271 0.688404 2.26489 0.491226C2.69706 0.291346 3.1819 0.191406 3.71941 0.191406C4.27313 0.191406 4.75393 0.295398 5.16179 0.50338C5.57235 0.708662 5.88973 0.985522 6.11392 1.33396C6.33811 1.6824 6.4502 2.0673 6.4502 2.48867C6.4529 2.95596 6.31515 3.34761 6.03694 3.66364C5.76143 3.97966 5.39948 4.1863 4.9511 4.28354V4.34836C5.53454 4.42939 5.98156 4.64548 6.29219 4.99662C6.60551 5.34506 6.76082 5.77858 6.75812 6.29719C6.75812 6.76177 6.62577 7.17774 6.36107 7.54508C6.09906 7.90973 5.73712 8.19604 5.27523 8.40403C4.81605 8.61201 4.28934 8.716 3.6951 8.716Z" fill="#B8B8B8"/>
</svg>
