<svg width="12" height="10" viewBox="0 0 12 10" fill="none" xmlns="http://www.w3.org/2000/svg">
<path d="M11.178 0.771484V9.06919H9.67489V2.23412H9.62627L7.68555 3.47391V2.09636L9.74782 0.771484H11.178Z" fill="black"/>
<path d="M0.716588 9.06935V7.98352L3.59728 5.15954C3.87279 4.88133 4.10239 4.63419 4.28606 4.4181C4.46973 4.20201 4.60749 3.99268 4.69932 3.7901C4.79116 3.58752 4.83708 3.37143 4.83708 3.14184C4.83708 2.87984 4.77765 2.65565 4.65881 2.46927C4.53996 2.2802 4.37654 2.13434 4.16856 2.0317C3.96058 1.92906 3.72424 1.87774 3.45953 1.87774C3.18672 1.87774 2.94768 1.93446 2.74239 2.04791C2.53711 2.15865 2.37775 2.31666 2.2643 2.52195C2.15356 2.72723 2.09819 2.97167 2.09819 3.25529H0.667969C0.667969 2.72858 0.788167 2.27074 1.02856 1.88179C1.26896 1.49283 1.59984 1.19167 2.02121 0.978281C2.44528 0.764896 2.93147 0.658203 3.47979 0.658203C4.03621 0.658203 4.5251 0.762195 4.94647 0.970177C5.36784 1.17816 5.69467 1.46312 5.92696 1.82507C6.16196 2.18701 6.27945 2.60028 6.27945 3.06486C6.27945 3.37548 6.22003 3.68071 6.10118 3.98053C5.98233 4.28034 5.773 4.61258 5.47318 4.97722C5.17606 5.34187 4.75875 5.78349 4.22123 6.3021L2.79101 7.75663V7.81335H6.40505V9.06935H0.716588Z" fill="black"/>
</svg>
