<svg width="14" height="10" viewBox="0 0 14 10" fill="none" xmlns="http://www.w3.org/2000/svg">
<path d="M10.0754 9.41115C9.53521 9.41115 9.05172 9.30986 8.62495 9.10728C8.19818 8.902 7.8592 8.62108 7.608 8.26454C7.3595 7.908 7.22714 7.50014 7.21094 7.04095H8.66952C8.69653 7.38129 8.84374 7.6595 9.11114 7.87559C9.37855 8.08897 9.69998 8.19566 10.0754 8.19566C10.3698 8.19566 10.6318 8.12814 10.8614 7.99308C11.091 7.85803 11.272 7.67031 11.4044 7.42991C11.5367 7.18951 11.6015 6.91535 11.5988 6.60743C11.6015 6.29411 11.5354 6.0159 11.4003 5.7728C11.2653 5.5297 11.0802 5.33928 10.8452 5.20152C10.6102 5.06107 10.3401 4.99084 10.0349 4.99084C9.78641 4.98814 9.54196 5.03406 9.30157 5.12859C9.06117 5.22313 8.87075 5.34738 8.73029 5.50134L7.373 5.2785L7.80652 1H12.6198V2.256H9.05037L8.81132 4.45603H8.85994C9.01391 4.27505 9.23134 4.12514 9.51225 4.0063C9.79317 3.88475 10.1011 3.82397 10.436 3.82397C10.9384 3.82397 11.3868 3.94282 11.7812 4.18052C12.1755 4.41551 12.4861 4.73964 12.713 5.1529C12.9399 5.56617 13.0534 6.03886 13.0534 6.57097C13.0534 7.11929 12.9264 7.60818 12.6725 8.03765C12.4213 8.46442 12.0715 8.8007 11.6231 9.0465C11.1775 9.2896 10.6616 9.41115 10.0754 9.41115Z" fill="black"/>
<path d="M0.10526 9.29787V8.21204L2.98596 5.38806C3.26147 5.10985 3.49106 4.8627 3.67473 4.64662C3.8584 4.43053 3.99616 4.2212 4.088 4.01862C4.17983 3.81603 4.22575 3.59995 4.22575 3.37036C4.22575 3.10835 4.16633 2.88416 4.04748 2.69779C3.92863 2.50871 3.76522 2.36286 3.55723 2.26022C3.34925 2.15757 3.11291 2.10625 2.8482 2.10625C2.57539 2.10625 2.33635 2.16298 2.13107 2.27642C1.92578 2.38717 1.76642 2.54518 1.65298 2.75046C1.54223 2.95574 1.48686 3.20019 1.48686 3.4838H0.0566406C0.0566406 2.95709 0.176838 2.49926 0.417234 2.11031C0.65763 1.72135 0.988511 1.42018 1.40988 1.2068C1.83395 0.993411 2.32014 0.886719 2.86846 0.886719C3.42488 0.886719 3.91378 0.99071 4.33514 1.19869C4.75651 1.40668 5.08334 1.69164 5.31563 2.05358C5.55063 2.41553 5.66812 2.82879 5.66812 3.29338C5.66812 3.604 5.6087 3.90922 5.48985 4.20904C5.37101 4.50886 5.16167 4.84109 4.86185 5.20574C4.56473 5.57038 4.14742 6.01201 3.6099 6.53062L2.17969 7.98514V8.04187H5.79372V9.29787H0.10526Z" fill="black"/>
</svg>
