<svg width="14" height="10" viewBox="0 0 14 10" fill="none" xmlns="http://www.w3.org/2000/svg">
<path d="M7.81229 9.06935V7.98352L10.693 5.15954C10.9685 4.88133 11.1981 4.63419 11.3818 4.4181C11.5654 4.20201 11.7032 3.99268 11.795 3.7901C11.8869 3.58752 11.9328 3.37143 11.9328 3.14184C11.9328 2.87984 11.8734 2.65565 11.7545 2.46927C11.6357 2.2802 11.4722 2.13434 11.2643 2.0317C11.0563 1.92906 10.8199 1.87774 10.5552 1.87774C10.2824 1.87774 10.0434 1.93446 9.8381 2.04791C9.63282 2.15865 9.47345 2.31666 9.36001 2.52195C9.24926 2.72723 9.19389 2.97167 9.19389 3.25529H7.76367C7.76367 2.72858 7.88387 2.27074 8.12427 1.88179C8.36466 1.49283 8.69554 1.19167 9.11691 0.978281C9.54098 0.764896 10.0272 0.658203 10.5755 0.658203C11.1319 0.658203 11.6208 0.762195 12.0422 0.970177C12.4635 1.17816 12.7904 1.46312 13.0227 1.82507C13.2577 2.18701 13.3752 2.60028 13.3752 3.06486C13.3752 3.37548 13.3157 3.68071 13.1969 3.98053C13.078 4.28034 12.8687 4.61258 12.5689 4.97722C12.2718 5.34187 11.8545 5.78349 11.3169 6.3021L9.88672 7.75663V7.81335H13.5008V9.06935H7.81229Z" fill="black"/>
<path d="M0.72733 9.06935V7.98352L3.60803 5.15954C3.88354 4.88133 4.11313 4.63419 4.2968 4.4181C4.48047 4.20201 4.61823 3.99268 4.71007 3.7901C4.8019 3.58752 4.84782 3.37143 4.84782 3.14184C4.84782 2.87984 4.7884 2.65565 4.66955 2.46927C4.5507 2.2802 4.38729 2.13434 4.1793 2.0317C3.97132 1.92906 3.73498 1.87774 3.47027 1.87774C3.19746 1.87774 2.95842 1.93446 2.75314 2.04791C2.54785 2.15865 2.38849 2.31666 2.27505 2.52195C2.1643 2.72723 2.10893 2.97167 2.10893 3.25529H0.678711C0.678711 2.72858 0.798909 2.27074 1.0393 1.88179C1.2797 1.49283 1.61058 1.19167 2.03195 0.978281C2.45602 0.764896 2.94221 0.658203 3.49053 0.658203C4.04695 0.658203 4.53585 0.762195 4.95721 0.970177C5.37858 1.17816 5.70541 1.46312 5.9377 1.82507C6.1727 2.18701 6.29019 2.60028 6.29019 3.06486C6.29019 3.37548 6.23077 3.68071 6.11192 3.98053C5.99308 4.28034 5.78374 4.61258 5.48392 4.97722C5.1868 5.34187 4.76949 5.78349 4.23198 6.3021L2.80176 7.75663V7.81335H6.41579V9.06935H0.72733Z" fill="black"/>
</svg>
