<svg width="15" height="9" viewBox="0 0 15 9" fill="none" xmlns="http://www.w3.org/2000/svg">
<path d="M11.3469 8.64943C10.8067 8.64943 10.3232 8.54814 9.89643 8.34556C9.46966 8.14028 9.13068 7.85937 8.87948 7.50282C8.63098 7.14628 8.49863 6.73842 8.48242 6.27924H9.941C9.96801 6.61957 10.1152 6.89778 10.3826 7.11387C10.65 7.32725 10.9715 7.43395 11.3469 7.43395C11.6413 7.43395 11.9033 7.36642 12.1329 7.23137C12.3625 7.09631 12.5435 6.90859 12.6758 6.66819C12.8082 6.42779 12.873 6.15364 12.8703 5.84571C12.873 5.53239 12.8068 5.25418 12.6718 5.01108C12.5367 4.76798 12.3517 4.57756 12.1167 4.4398C11.8817 4.29935 11.6116 4.22912 11.3064 4.22912C11.0579 4.22642 10.8134 4.27234 10.5731 4.36687C10.3327 4.46141 10.1422 4.58566 10.0018 4.73962L8.64449 4.51678L9.07801 0.238281H13.8913V1.49428H10.3219L10.0828 3.69431H10.1314C10.2854 3.51333 10.5028 3.36343 10.7837 3.24458C11.0646 3.12303 11.3726 3.06226 11.7075 3.06226C12.2099 3.06226 12.6583 3.1811 13.0526 3.4188C13.447 3.65379 13.7576 3.97792 13.9845 4.39118C14.2114 4.80445 14.3248 5.27714 14.3248 5.80925C14.3248 6.35757 14.1979 6.84646 13.944 7.27593C13.6928 7.7027 13.343 8.03899 12.8946 8.28478C12.449 8.52788 11.933 8.64943 11.3469 8.64943Z" fill="black"/>
<path d="M3.91938 8.69611C3.25221 8.69611 2.67959 8.5273 2.2015 8.18966C1.72611 7.84933 1.36011 7.35908 1.10351 6.71893C0.849607 6.07607 0.722656 5.30221 0.722656 4.39735C0.725357 3.49249 0.853658 2.72269 1.10756 2.08793C1.36416 1.45048 1.73016 0.964287 2.20555 0.629353C2.68364 0.29442 3.25491 0.126953 3.91938 0.126953C4.58384 0.126953 5.15512 0.29442 5.63321 0.629353C6.1113 0.964287 6.4773 1.45048 6.7312 2.08793C6.9878 2.72539 7.1161 3.49519 7.1161 4.39735C7.1161 5.30491 6.9878 6.08012 6.7312 6.72298C6.4773 7.36313 6.1113 7.85203 5.63321 8.18966C5.15782 8.5273 4.58654 8.69611 3.91938 8.69611ZM3.91938 7.42796C4.43799 7.42796 4.8472 7.17271 5.14702 6.6622C5.44954 6.149 5.6008 5.39405 5.6008 4.39735C5.6008 3.73829 5.53192 3.18457 5.39417 2.73619C5.25641 2.28781 5.06193 1.95018 4.81073 1.72329C4.55953 1.4937 4.26242 1.3789 3.91938 1.3789C3.40347 1.3789 2.99561 1.6355 2.69579 2.14871C2.39597 2.65921 2.24471 3.40876 2.24201 4.39735C2.23931 5.05912 2.30549 5.61554 2.44054 6.06662C2.57829 6.5177 2.77277 6.85803 3.02397 7.08762C3.27517 7.31451 3.57364 7.42796 3.91938 7.42796Z" fill="black"/>
</svg>
