<svg width="13" height="9" viewBox="0 0 13 9" fill="none" xmlns="http://www.w3.org/2000/svg">
<path d="M6.33573 8.58302V7.49719L9.21643 4.67322C9.49194 4.39501 9.72153 4.14786 9.9052 3.93177C10.0889 3.71569 10.2266 3.50635 10.3185 3.30377C10.4103 3.10119 10.4562 2.88511 10.4562 2.65551C10.4562 2.39351 10.3968 2.16932 10.2779 1.98295C10.1591 1.79387 9.99569 1.64801 9.7877 1.54537C9.57972 1.44273 9.34338 1.39141 9.07867 1.39141C8.80586 1.39141 8.56682 1.44813 8.36153 1.56158C8.15625 1.67232 7.99689 1.83034 7.88345 2.03562C7.7727 2.2409 7.71733 2.48535 7.71733 2.76896H6.28711C6.28711 2.24225 6.40731 1.78442 6.6477 1.39546C6.8881 1.00651 7.21898 0.705337 7.64035 0.491953C8.06442 0.278567 8.55061 0.171875 9.09893 0.171875C9.65535 0.171875 10.1442 0.275866 10.5656 0.483849C10.987 0.691832 11.3138 0.976795 11.5461 1.33874C11.7811 1.70068 11.8986 2.11395 11.8986 2.57853C11.8986 2.88916 11.8392 3.19438 11.7203 3.4942C11.6015 3.79402 11.3921 4.12625 11.0923 4.49089C10.7952 4.85554 10.3779 5.29716 9.84037 5.81577L8.41015 7.2703V7.32702H12.0242V8.58302H6.33573Z" fill="black"/>
<path d="M4.22882 0.285156V8.58286H2.72567V1.74779H2.67705L0.736328 2.98758V1.61003L2.7986 0.285156H4.22882Z" fill="black"/>
</svg>
