<svg width="13" height="9" viewBox="0 0 13 9" fill="none" xmlns="http://www.w3.org/2000/svg">
<path d="M8.83832 8.69611C8.17116 8.69611 7.59853 8.5273 7.12044 8.18966C6.64505 7.84933 6.27906 7.35908 6.02245 6.71893C5.76855 6.07607 5.6416 5.30221 5.6416 4.39735C5.6443 3.49249 5.7726 2.72269 6.02651 2.08793C6.28311 1.45048 6.6491 0.964287 7.12449 0.629353C7.60258 0.29442 8.17386 0.126953 8.83832 0.126953C9.50279 0.126953 10.0741 0.29442 10.5522 0.629353C11.0302 0.964287 11.3962 1.45048 11.6501 2.08793C11.9067 2.72539 12.035 3.49519 12.035 4.39735C12.035 5.30491 11.9067 6.08012 11.6501 6.72298C11.3962 7.36313 11.0302 7.85203 10.5522 8.18966C10.0768 8.5273 9.50549 8.69611 8.83832 8.69611ZM8.83832 7.42796C9.35693 7.42796 9.76614 7.17271 10.066 6.6622C10.3685 6.149 10.5197 5.39405 10.5197 4.39735C10.5197 3.73829 10.4509 3.18457 10.3131 2.73619C10.1754 2.28781 9.98088 1.95018 9.72968 1.72329C9.47848 1.4937 9.18136 1.3789 8.83832 1.3789C8.32242 1.3789 7.91456 1.6355 7.61474 2.14871C7.31492 2.65921 7.16366 3.40876 7.16096 4.39735C7.15826 5.05912 7.22443 5.61554 7.35949 6.06662C7.49724 6.5177 7.69172 6.85803 7.94292 7.08762C8.19412 7.31451 8.49259 7.42796 8.83832 7.42796Z" fill="black"/>
<path d="M3.66534 0.238281V8.53598H2.16219V1.70091H2.11357L0.172852 2.94071V1.56316L2.23512 0.238281H3.66534Z" fill="black"/>
</svg>
