<svg width="16" height="9" viewBox="0 0 16 9" fill="none" xmlns="http://www.w3.org/2000/svg">
<path d="M8.56543 6.99637V5.80115L12.0863 0.238281H13.083V1.93996H12.4752L10.105 5.6958V5.76063H15.0196V6.99637H8.56543ZM12.5239 8.53598V6.63173L12.5401 6.09691V0.238281H13.9581V8.53598H12.5239Z" fill="black"/>
<path d="M4.17231 8.69611C3.50514 8.69611 2.93252 8.5273 2.45442 8.18966C1.97904 7.84933 1.61304 7.35908 1.35644 6.71893C1.10254 6.07607 0.975586 5.30221 0.975586 4.39735C0.978287 3.49249 1.10659 2.72269 1.36049 2.08793C1.61709 1.45048 1.98309 0.964287 2.45848 0.629353C2.93657 0.29442 3.50784 0.126953 4.17231 0.126953C4.83677 0.126953 5.40805 0.29442 5.88614 0.629353C6.36423 0.964287 6.73023 1.45048 6.98413 2.08793C7.24073 2.72539 7.36903 3.49519 7.36903 4.39735C7.36903 5.30491 7.24073 6.08012 6.98413 6.72298C6.73023 7.36313 6.36423 7.85203 5.88614 8.18966C5.41075 8.5273 4.83947 8.69611 4.17231 8.69611ZM4.17231 7.42796C4.69092 7.42796 5.10013 7.17271 5.39995 6.6622C5.70247 6.149 5.85373 5.39405 5.85373 4.39735C5.85373 3.73829 5.78485 3.18457 5.6471 2.73619C5.50934 2.28781 5.31486 1.95018 5.06366 1.72329C4.81246 1.4937 4.51535 1.3789 4.17231 1.3789C3.6564 1.3789 3.24854 1.6355 2.94872 2.14871C2.6489 2.65921 2.49764 3.40876 2.49494 4.39735C2.49224 5.05912 2.55842 5.61554 2.69347 6.06662C2.83122 6.5177 3.0257 6.85803 3.2769 7.08762C3.5281 7.31451 3.82657 7.42796 4.17231 7.42796Z" fill="black"/>
</svg>
