<svg width="13" height="9" viewBox="0 0 13 9" fill="none" xmlns="http://www.w3.org/2000/svg">
<path d="M9.09301 8.6924C8.55279 8.6924 8.0693 8.59111 7.64253 8.38853C7.21576 8.18325 6.87677 7.90233 6.62557 7.54579C6.37707 7.18925 6.24472 6.78139 6.22852 6.3222H7.6871C7.71411 6.66254 7.86132 6.94075 8.12872 7.15684C8.39613 7.37022 8.71756 7.47691 9.09301 7.47691C9.38742 7.47691 9.64943 7.40939 9.87902 7.27433C10.1086 7.13928 10.2896 6.95156 10.4219 6.71116C10.5543 6.47076 10.6191 6.1966 10.6164 5.88868C10.6191 5.57536 10.5529 5.29715 10.4179 5.05405C10.2828 4.81095 10.0978 4.62053 9.86281 4.48277C9.62782 4.34232 9.35771 4.27209 9.05249 4.27209C8.80399 4.26939 8.55954 4.31531 8.31915 4.40984C8.07875 4.50438 7.88833 4.62863 7.74787 4.78259L6.39058 4.55975L6.8241 0.28125H11.6374V1.53725H8.06795L7.8289 3.73728H7.87752C8.03148 3.5563 8.24892 3.40639 8.52983 3.28755C8.81074 3.166 9.11867 3.10522 9.4536 3.10522C9.956 3.10522 10.4044 3.22407 10.7987 3.46177C11.1931 3.69676 11.5037 4.02089 11.7306 4.43415C11.9575 4.84742 12.0709 5.32011 12.0709 5.85222C12.0709 6.40054 11.944 6.88943 11.6901 7.3189C11.4389 7.74567 11.0891 8.08195 10.6407 8.32775C10.195 8.57085 9.67914 8.6924 9.09301 8.6924Z" fill="black"/>
<path d="M4.10089 0.28125V8.57895H2.59774V1.74388H2.54912L0.608398 2.98368V1.60613L2.67067 0.28125H4.10089Z" fill="black"/>
</svg>
