<svg width="14" height="10" viewBox="0 0 14 10" fill="none" xmlns="http://www.w3.org/2000/svg">
<path d="M7.04883 7.52958V6.33435L10.5697 0.771484H11.5664V2.47316H10.9586L8.58844 6.22901V6.29383H13.503V7.52958H7.04883ZM11.0073 9.06919V7.16493L11.0235 6.63012V0.771484H12.4415V9.06919H11.0073Z" fill="black"/>
<path d="M0.290807 9.06935V7.98352L3.1715 5.15954C3.44701 4.88133 3.6766 4.63419 3.86028 4.4181C4.04395 4.20201 4.1817 3.99268 4.27354 3.7901C4.36538 3.58752 4.4113 3.37143 4.4113 3.14184C4.4113 2.87984 4.35187 2.65565 4.23303 2.46927C4.11418 2.2802 3.95076 2.13434 3.74278 2.0317C3.5348 1.92906 3.29845 1.87774 3.03375 1.87774C2.76094 1.87774 2.52189 1.93446 2.31661 2.04791C2.11133 2.15865 1.95197 2.31666 1.83852 2.52195C1.72778 2.72723 1.67241 2.97167 1.67241 3.25529H0.242188C0.242188 2.72858 0.362385 2.27074 0.602781 1.88179C0.843177 1.49283 1.17406 1.19167 1.59543 0.978281C2.01949 0.764896 2.50569 0.658203 3.05401 0.658203C3.61043 0.658203 4.09932 0.762195 4.52069 0.970177C4.94206 1.17816 5.26889 1.46312 5.50118 1.82507C5.73617 2.18701 5.85367 2.60028 5.85367 3.06486C5.85367 3.37548 5.79425 3.68071 5.6754 3.98053C5.55655 4.28034 5.34722 4.61258 5.0474 4.97722C4.75028 5.34187 4.33297 5.78349 3.79545 6.3021L2.36523 7.75663V7.81335H5.97927V9.06935H0.290807Z" fill="black"/>
</svg>
