<svg width="13" height="10" viewBox="0 0 13 10" fill="none" xmlns="http://www.w3.org/2000/svg">
<path d="M9.53662 9.1828C8.93428 9.1828 8.39946 9.08151 7.93218 8.87892C7.46759 8.67634 7.10295 8.39948 6.83824 8.04834C6.57624 7.6945 6.44659 7.29339 6.44929 6.84502C6.44659 6.49658 6.52222 6.1765 6.67618 5.88478C6.83014 5.59307 7.03812 5.34997 7.30013 5.15549C7.56483 4.95831 7.85925 4.83271 8.18338 4.77869V4.72197C7.75661 4.62743 7.41087 4.41 7.14617 4.06966C6.88416 3.72662 6.75451 3.33092 6.75721 2.88254C6.75451 2.45577 6.87336 2.07492 7.11375 1.73998C7.35415 1.40505 7.68368 1.1417 8.10235 0.949919C8.52101 0.755442 8.9991 0.658203 9.53662 0.658203C10.0687 0.658203 10.5428 0.755442 10.9587 0.949919C11.3774 1.1417 11.7069 1.40505 11.9473 1.73998C12.1904 2.07492 12.312 2.45577 12.312 2.88254C12.312 3.33092 12.1783 3.72662 11.9109 4.06966C11.6462 4.41 11.3045 4.62743 10.8858 4.72197V4.77869C11.2099 4.83271 11.5016 4.95831 11.761 5.15549C12.023 5.34997 12.2309 5.59307 12.3849 5.88478C12.5416 6.1765 12.6199 6.49658 12.6199 6.84502C12.6199 7.29339 12.4875 7.6945 12.2228 8.04834C11.9581 8.39948 11.5935 8.67634 11.1289 8.87892C10.667 9.08151 10.1363 9.1828 9.53662 9.1828ZM9.53662 8.02403C9.84724 8.02403 10.1173 7.97136 10.3469 7.86602C10.5765 7.75798 10.7548 7.60672 10.8818 7.41224C11.0087 7.21776 11.0735 6.99357 11.0762 6.73967C11.0735 6.47497 11.0047 6.24132 10.8696 6.03874C10.7372 5.83346 10.5549 5.67275 10.3226 5.5566C10.093 5.44046 9.83103 5.38238 9.53662 5.38238C9.2395 5.38238 8.97479 5.44046 8.7425 5.5566C8.51021 5.67275 8.32654 5.83346 8.19148 6.03874C8.05913 6.24132 7.9943 6.47497 7.997 6.73967C7.9943 6.99357 8.05643 7.21776 8.18338 7.41224C8.31033 7.60402 8.4886 7.75393 8.71819 7.86197C8.95048 7.97001 9.22329 8.02403 9.53662 8.02403ZM9.53662 4.24388C9.79052 4.24388 10.0147 4.19256 10.2092 4.08992C10.4064 3.98728 10.5617 3.84412 10.6751 3.66045C10.7886 3.47677 10.8466 3.26474 10.8493 3.02434C10.8466 2.78665 10.7899 2.57867 10.6792 2.4004C10.5684 2.21942 10.4145 2.08032 10.2173 1.98308C10.0201 1.88314 9.79322 1.83317 9.53662 1.83317C9.27461 1.83317 9.04367 1.88314 8.84379 1.98308C8.64661 2.08032 8.49265 2.21942 8.38191 2.4004C8.27386 2.57867 8.22119 2.78665 8.22389 3.02434C8.22119 3.26474 8.27521 3.47677 8.38596 3.66045C8.4994 3.84142 8.65472 3.98458 8.85189 4.08992C9.05177 4.19256 9.28001 4.24388 9.53662 4.24388Z" fill="black"/>
<path d="M4.48077 0.771484V9.06919H2.97762V2.23412H2.929L0.988281 3.47391V2.09636L3.05055 0.771484H4.48077Z" fill="black"/>
</svg>
