<svg width="12" height="10" viewBox="0 0 12 10" fill="none" xmlns="http://www.w3.org/2000/svg">
<path d="M11.097 1V9.2977H9.59383V2.46263H9.54521L7.60449 3.70243V2.32488L9.66676 1H11.097Z" fill="black"/>
<path d="M3.26932 9.41131C2.68589 9.41131 2.16728 9.31137 1.7135 9.11149C1.26242 8.91161 0.905883 8.6334 0.643879 8.27686C0.381874 7.92032 0.242769 7.5084 0.226562 7.04112H1.74997C1.76347 7.26531 1.83775 7.46114 1.97281 7.6286C2.10786 7.79337 2.28748 7.92167 2.51167 8.01351C2.73586 8.10534 2.98706 8.15126 3.26527 8.15126C3.56239 8.15126 3.82574 8.09994 4.05534 7.9973C4.28493 7.89196 4.46455 7.7461 4.5942 7.55972C4.72385 7.37335 4.78733 7.15862 4.78463 6.91552C4.78733 6.66432 4.7225 6.44283 4.59015 6.25105C4.4578 6.05928 4.26602 5.90937 4.01482 5.80132C3.76632 5.69328 3.4665 5.63926 3.11536 5.63926H2.38202V4.4805H3.11536C3.40438 4.4805 3.65693 4.43053 3.87301 4.33059C4.0918 4.23065 4.26332 4.09019 4.38757 3.90922C4.51182 3.72555 4.57259 3.51351 4.56989 3.27312C4.57259 3.03813 4.51992 2.83419 4.41188 2.66133C4.30654 2.48576 4.15663 2.34935 3.96215 2.25211C3.77037 2.15487 3.54483 2.10625 3.28553 2.10625C3.03163 2.10625 2.79664 2.15217 2.58055 2.24401C2.36446 2.33585 2.19024 2.46685 2.05789 2.63702C1.92554 2.80448 1.85531 3.00436 1.84721 3.23665H0.400782C0.411586 2.77207 0.545289 2.36421 0.801891 2.01307C1.06119 1.65923 1.40693 1.38372 1.8391 1.18654C2.27128 0.986659 2.75612 0.886719 3.29363 0.886719C3.84735 0.886719 4.32814 0.99071 4.73601 1.19869C5.14657 1.40397 5.46395 1.68083 5.68814 2.02927C5.91232 2.37771 6.02442 2.76261 6.02442 3.18398C6.02712 3.65127 5.88937 4.04293 5.61115 4.35895C5.33565 4.67498 4.9737 4.88161 4.52532 4.97885V5.04367C5.10876 5.12471 5.55578 5.34079 5.86641 5.69193C6.17973 6.04037 6.33504 6.47389 6.33234 6.9925C6.33234 7.45708 6.19999 7.87305 5.93528 8.2404C5.67328 8.60504 5.31134 8.89135 4.84945 9.09934C4.39027 9.30732 3.86356 9.41131 3.26932 9.41131Z" fill="black"/>
</svg>
