<svg width="24" height="24" viewBox="0 0 24 24" fill="none" xmlns="http://www.w3.org/2000/svg">
<mask id="mask0_1_3027" style="mask-type:alpha" maskUnits="userSpaceOnUse" x="0" y="0" width="24" height="24">
<rect width="24" height="24" fill="#D9D9D9"/>
</mask>
<g mask="url(#mask0_1_3027)">
<path d="M15 9C13.8954 9 13 8.10457 13 7V5C13 3.89543 13.8954 3 15 3H19C20.1046 3 21 3.89543 21 5V7C21 8.10457 20.1046 9 19 9H15ZM5 13C3.89543 13 3 12.1046 3 11V5C3 3.89543 3.89543 3 5 3H9C10.1046 3 11 3.89543 11 5V11C11 12.1046 10.1046 13 9 13H5ZM15 21C13.8954 21 13 20.1046 13 19V13C13 11.8954 13.8954 11 15 11H19C20.1046 11 21 11.8954 21 13V19C21 20.1046 20.1046 21 19 21H15ZM5 21C3.89543 21 3 20.1046 3 19V17C3 15.8954 3.89543 15 5 15H9C10.1046 15 11 15.8954 11 17V19C11 20.1046 10.1046 21 9 21H5ZM5 9C5 10.1046 5.89543 11 7 11C8.10457 11 9 10.1046 9 9V7C9 5.89543 8.10457 5 7 5C5.89543 5 5 5.89543 5 7V9ZM15 17C15 18.1046 15.8954 19 17 19C18.1046 19 19 18.1046 19 17V15C19 13.8954 18.1046 13 17 13C15.8954 13 15 13.8954 15 15V17ZM15 6C15 6.55228 15.4477 7 16 7H18C18.5523 7 19 6.55228 19 6C19 5.44772 18.5523 5 18 5H16C15.4477 5 15 5.44772 15 6ZM5 18C5 18.5523 5.44772 19 6 19H8C8.55228 19 9 18.5523 9 18C9 17.4477 8.55228 17 8 17H6C5.44772 17 5 17.4477 5 18Z" fill="white"/>
</g>
</svg>
