<svg width="14" height="9" viewBox="0 0 14 9" fill="none" xmlns="http://www.w3.org/2000/svg">
<path d="M10.8777 8.716C10.2943 8.716 9.77568 8.61606 9.3219 8.41618C8.87082 8.2163 8.51428 7.93809 8.25228 7.58155C7.99027 7.22501 7.85117 6.81309 7.83496 6.34581H9.35837C9.37187 6.56999 9.44615 6.76582 9.58121 6.93329C9.71626 7.09805 9.89588 7.22636 10.1201 7.31819C10.3443 7.41003 10.5955 7.45595 10.8737 7.45595C11.1708 7.45595 11.4341 7.40463 11.6637 7.30199C11.8933 7.19664 12.0729 7.05079 12.2026 6.86441C12.3323 6.67804 12.3957 6.4633 12.393 6.22021C12.3957 5.96901 12.3309 5.74752 12.1985 5.55574C12.0662 5.36396 11.8744 5.21406 11.6232 5.10601C11.3747 4.99797 11.0749 4.94395 10.7238 4.94395H9.99042V3.78519H10.7238C11.0128 3.78519 11.2653 3.73522 11.4814 3.63528C11.7002 3.53534 11.8717 3.39488 11.996 3.21391C12.1202 3.03024 12.181 2.8182 12.1783 2.57781C12.181 2.34281 12.1283 2.13888 12.0203 1.96601C11.9149 1.79044 11.765 1.65404 11.5705 1.5568C11.3788 1.45956 11.1532 1.41094 10.8939 1.41094C10.64 1.41094 10.405 1.45686 10.1889 1.5487C9.97286 1.64053 9.79864 1.77154 9.66629 1.9417C9.53394 2.10917 9.46371 2.30905 9.45561 2.54134H8.00918C8.01998 2.07676 8.15369 1.66889 8.41029 1.31775C8.66959 0.963914 9.01533 0.688404 9.4475 0.491226C9.87967 0.291346 10.3645 0.191406 10.902 0.191406C11.4558 0.191406 11.9365 0.295398 12.3444 0.50338C12.755 0.708662 13.0723 0.985522 13.2965 1.33396C13.5207 1.6824 13.6328 2.0673 13.6328 2.48867C13.6355 2.95596 13.4978 3.34761 13.2196 3.66364C12.944 3.97966 12.5821 4.1863 12.1337 4.28354V4.34836C12.7172 4.42939 13.1642 4.64548 13.4748 4.99662C13.7881 5.34506 13.9434 5.77858 13.9407 6.29719C13.9407 6.76177 13.8084 7.17774 13.5437 7.54508C13.2817 7.90973 12.9197 8.19604 12.4579 8.40403C11.9987 8.61201 11.472 8.716 10.8777 8.716Z" fill="black"/>
<path d="M3.35688 8.76057C2.68971 8.76057 2.11709 8.59175 1.639 8.25412C1.16361 7.91378 0.79761 7.42353 0.541008 6.78338C0.287107 6.14052 0.160156 5.36667 0.160156 4.46181C0.162857 3.55695 0.291158 2.78714 0.545059 2.15239C0.801662 1.51493 1.16766 1.02874 1.64305 0.693807C2.12114 0.358873 2.69241 0.191406 3.35688 0.191406C4.02134 0.191406 4.59262 0.358873 5.07071 0.693807C5.5488 1.02874 5.9148 1.51493 6.1687 2.15239C6.4253 2.78984 6.5536 3.55965 6.5536 4.46181C6.5536 5.36937 6.4253 6.14458 6.1687 6.78743C5.9148 7.42759 5.5488 7.91648 5.07071 8.25412C4.59532 8.59175 4.02404 8.76057 3.35688 8.76057ZM3.35688 7.49241C3.87549 7.49241 4.2847 7.23716 4.58452 6.72666C4.88704 6.21345 5.0383 5.4585 5.0383 4.46181C5.0383 3.80274 4.96942 3.24902 4.83167 2.80064C4.69391 2.35227 4.49943 2.01463 4.24823 1.78774C3.99703 1.55815 3.69992 1.44335 3.35688 1.44335C2.84097 1.44335 2.43311 1.69996 2.13329 2.21316C1.83347 2.72366 1.68221 3.47321 1.67951 4.46181C1.67681 5.12357 1.74299 5.67999 1.87804 6.13107C2.01579 6.58215 2.21027 6.92249 2.46147 7.15208C2.71267 7.37897 3.01114 7.49241 3.35688 7.49241Z" fill="black"/>
</svg>
