<svg width="12" height="9" viewBox="0 0 12 9" fill="none" xmlns="http://www.w3.org/2000/svg">
<path d="M11.7112 0.302734V8.60044H10.2081V1.76537H10.1595L8.21875 3.00516V1.62761L10.281 0.302734H11.7112Z" fill="black"/>
<path d="M3.7934 8.76057C3.12624 8.76057 2.55361 8.59175 2.07552 8.25412C1.60013 7.91378 1.23413 7.42353 0.977531 6.78338C0.72363 6.14052 0.59668 5.36667 0.59668 4.46181C0.599381 3.55695 0.727682 2.78714 0.981583 2.15239C1.23819 1.51493 1.60418 1.02874 2.07957 0.693807C2.55766 0.358873 3.12894 0.191406 3.7934 0.191406C4.45787 0.191406 5.02914 0.358873 5.50723 0.693807C5.98532 1.02874 6.35132 1.51493 6.60522 2.15239C6.86182 2.78984 6.99013 3.55965 6.99013 4.46181C6.99013 5.36937 6.86182 6.14458 6.60522 6.78743C6.35132 7.42759 5.98532 7.91648 5.50723 8.25412C5.03185 8.59175 4.46057 8.76057 3.7934 8.76057ZM3.7934 7.49241C4.31201 7.49241 4.72122 7.23716 5.02104 6.72666C5.32356 6.21345 5.47482 5.4585 5.47482 4.46181C5.47482 3.80274 5.40594 3.24902 5.26819 2.80064C5.13043 2.35227 4.93596 2.01463 4.68476 1.78774C4.43356 1.55815 4.13644 1.44335 3.7934 1.44335C3.2775 1.44335 2.86963 1.69996 2.56982 2.21316C2.27 2.72366 2.11874 3.47321 2.11603 4.46181C2.11333 5.12357 2.17951 5.67999 2.31456 6.13107C2.45232 6.58215 2.6468 6.92249 2.898 7.15208C3.1492 7.37897 3.44766 7.49241 3.7934 7.49241Z" fill="black"/>
</svg>
