<svg width="13" height="9" viewBox="0 0 13 9" fill="none" xmlns="http://www.w3.org/2000/svg">
<path d="M7.49594 8.60044L11.0249 1.61546V1.55873H6.92871V0.302734H12.5807V1.5871L9.05581 8.60044H7.49594Z" fill="#B8B8B8"/>
<path d="M0.10526 8.60255V7.51672L2.98596 4.69275C3.26147 4.41454 3.49106 4.16739 3.67473 3.9513C3.8584 3.73522 3.99616 3.52588 4.088 3.3233C4.17983 3.12072 4.22575 2.90464 4.22575 2.67505C4.22575 2.41304 4.16633 2.18885 4.04748 2.00248C3.92863 1.8134 3.76522 1.66754 3.55723 1.5649C3.34925 1.46226 3.11291 1.41094 2.8482 1.41094C2.57539 1.41094 2.33635 1.46766 2.13107 1.58111C1.92578 1.69185 1.76642 1.84987 1.65298 2.05515C1.54223 2.26043 1.48686 2.50488 1.48686 2.78849H0.0566406C0.0566406 2.26178 0.176838 1.80395 0.417234 1.41499C0.65763 1.02604 0.988511 0.724868 1.40988 0.511484C1.83395 0.298099 2.32014 0.191406 2.86846 0.191406C3.42488 0.191406 3.91378 0.295398 4.33514 0.50338C4.75651 0.711363 5.08334 0.996327 5.31563 1.35827C5.55063 1.72021 5.66812 2.13348 5.66812 2.59806C5.66812 2.90869 5.6087 3.21391 5.48985 3.51373C5.37101 3.81355 5.16167 4.14578 4.86185 4.51043C4.56473 4.87507 4.14742 5.3167 3.6099 5.8353L2.17969 7.28983V7.34655H5.79372V8.60255H0.10526Z" fill="#B8B8B8"/>
</svg>
