<svg width="14" height="9" viewBox="0 0 14 9" fill="none" xmlns="http://www.w3.org/2000/svg">
<path d="M10.8882 8.716C10.2858 8.716 9.75103 8.61471 9.28374 8.41213C8.81916 8.20955 8.45451 7.93269 8.18981 7.58155C7.9278 7.22771 7.79815 6.8266 7.80085 6.37822C7.79815 6.02978 7.87378 5.7097 8.02774 5.41799C8.1817 5.12627 8.38969 4.88317 8.65169 4.6887C8.9164 4.49152 9.21081 4.36592 9.53494 4.3119V4.25517C9.10817 4.16064 8.76243 3.9432 8.49773 3.60286C8.23572 3.25983 8.10607 2.86412 8.10877 2.41574C8.10607 1.98897 8.22492 1.60812 8.46532 1.27319C8.70571 0.938254 9.03524 0.674899 9.45391 0.483122C9.87258 0.288645 10.3507 0.191406 10.8882 0.191406C11.4203 0.191406 11.8943 0.288645 12.3103 0.483122C12.729 0.674899 13.0585 0.938254 13.2989 1.27319C13.542 1.60812 13.6635 1.98897 13.6635 2.41574C13.6635 2.86412 13.5298 3.25983 13.2624 3.60286C12.9977 3.9432 12.656 4.16064 12.2374 4.25517V4.3119C12.5615 4.36592 12.8532 4.49152 13.1125 4.6887C13.3745 4.88317 13.5825 5.12627 13.7365 5.41799C13.8931 5.7097 13.9715 6.02978 13.9715 6.37822C13.9715 6.8266 13.8391 7.22771 13.5744 7.58155C13.3097 7.93269 12.945 8.20955 12.4805 8.41213C12.0186 8.61471 11.4878 8.716 10.8882 8.716ZM10.8882 7.55724C11.1988 7.55724 11.4689 7.50457 11.6985 7.39923C11.9281 7.29118 12.1064 7.13992 12.2333 6.94544C12.3603 6.75097 12.4251 6.52678 12.4278 6.27288C12.4251 6.00817 12.3562 5.77453 12.2212 5.57195C12.0888 5.36667 11.9065 5.20595 11.6742 5.08981C11.4446 4.97366 11.1826 4.91559 10.8882 4.91559C10.5911 4.91559 10.3264 4.97366 10.0941 5.08981C9.86177 5.20595 9.6781 5.36667 9.54304 5.57195C9.41069 5.77453 9.34587 6.00817 9.34857 6.27288C9.34587 6.52678 9.40799 6.75097 9.53494 6.94544C9.66189 7.13722 9.84016 7.28713 10.0698 7.39517C10.302 7.50322 10.5749 7.55724 10.8882 7.55724ZM10.8882 3.77708C11.1421 3.77708 11.3663 3.72576 11.5607 3.62312C11.7579 3.52048 11.9132 3.37732 12.0267 3.19365C12.1401 3.00998 12.1982 2.79794 12.2009 2.55755C12.1982 2.31985 12.1415 2.11187 12.0307 1.9336C11.92 1.75263 11.766 1.61352 11.5689 1.51628C11.3717 1.41634 11.1448 1.36637 10.8882 1.36637C10.6262 1.36637 10.3952 1.41634 10.1954 1.51628C9.99818 1.61352 9.84421 1.75263 9.73347 1.9336C9.62543 2.11187 9.57276 2.31985 9.57546 2.55755C9.57276 2.79794 9.62678 3.00998 9.73752 3.19365C9.85097 3.37462 10.0063 3.51778 10.2035 3.62312C10.4033 3.72576 10.6316 3.77708 10.8882 3.77708Z" fill="#B8B8B8"/>
<path d="M0.85233 8.60255V7.51672L3.73303 4.69275C4.00854 4.41454 4.23813 4.16739 4.4218 3.9513C4.60547 3.73522 4.74323 3.52588 4.83507 3.3233C4.9269 3.12072 4.97282 2.90464 4.97282 2.67505C4.97282 2.41304 4.9134 2.18885 4.79455 2.00248C4.6757 1.8134 4.51229 1.66754 4.3043 1.5649C4.09632 1.46226 3.85998 1.41094 3.59527 1.41094C3.32246 1.41094 3.08342 1.46766 2.87814 1.58111C2.67285 1.69185 2.51349 1.84987 2.40005 2.05515C2.2893 2.26043 2.23393 2.50488 2.23393 2.78849H0.803711C0.803711 2.26178 0.923909 1.80395 1.1643 1.41499C1.4047 1.02604 1.73558 0.724868 2.15695 0.511484C2.58102 0.298099 3.06721 0.191406 3.61553 0.191406C4.17195 0.191406 4.66085 0.295398 5.08221 0.50338C5.50358 0.711363 5.83041 0.996327 6.0627 1.35827C6.2977 1.72021 6.41519 2.13348 6.41519 2.59806C6.41519 2.90869 6.35577 3.21391 6.23692 3.51373C6.11808 3.81355 5.90874 4.14578 5.60892 4.51043C5.3118 4.87507 4.89449 5.3167 4.35698 5.8353L2.92676 7.28983V7.34655H6.54079V8.60255H0.85233Z" fill="#B8B8B8"/>
</svg>
