<svg width="13" height="10" viewBox="0 0 13 10" fill="none" xmlns="http://www.w3.org/2000/svg">
<path d="M11.1994 9.04256V2.81929H12.6661V9.04256H11.1994ZM11.9368 1.93603C11.7045 1.93603 11.5046 1.85905 11.3371 1.70509C11.1697 1.54843 11.0859 1.3607 11.0859 1.14192C11.0859 0.920429 11.1697 0.732705 11.3371 0.578743C11.5046 0.422081 11.7045 0.34375 11.9368 0.34375C12.1718 0.34375 12.3716 0.422081 12.5364 0.578743C12.7039 0.732705 12.7876 0.920429 12.7876 1.14192C12.7876 1.3607 12.7039 1.54843 12.5364 1.70509C12.3716 1.85905 12.1718 1.93603 11.9368 1.93603Z" fill="black"/>
<path d="M6.67676 9.04288V2.8196H8.09887V3.85682H8.1637C8.27714 3.49757 8.47162 3.22071 8.74713 3.02624C9.02534 2.82906 9.34272 2.73047 9.69926 2.73047C9.78029 2.73047 9.87078 2.73452 9.97072 2.74262C10.0734 2.74803 10.1584 2.75748 10.226 2.77098V4.12017C10.1638 4.09856 10.0653 4.07966 9.9302 4.06345C9.79785 4.04454 9.66955 4.03509 9.5453 4.03509C9.27789 4.03509 9.0375 4.09316 8.82411 4.20931C8.61343 4.32275 8.44731 4.48076 8.32576 4.68335C8.20422 4.88593 8.14344 5.11957 8.14344 5.38427V9.04288H6.67676Z" fill="black"/>
<path d="M0.145508 9.04184V0.744141H5.46122V2.00419H1.64866V4.25689H5.09658V5.51694H1.64866V9.04184H0.145508Z" fill="black"/>
</svg>
