<svg width="26" height="26" viewBox="0 0 26 26" fill="none" xmlns="http://www.w3.org/2000/svg">
<path d="M3.25 10.668C3.25 9.72516 3.25 9.25376 3.54289 8.96086C3.83579 8.66797 4.30719 8.66797 5.25 8.66797H20.75C21.6928 8.66797 22.1642 8.66797 22.4571 8.96086C22.75 9.25376 22.75 9.72516 22.75 10.668V12.4596C22.75 13.0433 22.75 13.3351 22.6319 13.556C22.5387 13.7305 22.3958 13.8733 22.2214 13.9666C22.0005 14.0846 21.7087 14.0846 21.125 14.0846V14.0846C20.5413 14.0846 20.2495 14.0846 20.0286 14.2027C19.8542 14.2959 19.7113 14.4388 19.6181 14.6132C19.5 14.8341 19.5 15.126 19.5 15.7096V19.668C19.5 20.6108 19.5 21.0822 19.2071 21.3751C18.9142 21.668 18.4428 21.668 17.5 21.668H8.5C7.55719 21.668 7.08579 21.668 6.79289 21.3751C6.5 21.0822 6.5 20.6108 6.5 19.668V15.7096C6.5 15.126 6.5 14.8341 6.38192 14.6132C6.28869 14.4388 6.14582 14.2959 5.9714 14.2027C5.75049 14.0846 5.45866 14.0846 4.875 14.0846V14.0846C4.29134 14.0846 3.99951 14.0846 3.7786 13.9666C3.60418 13.8733 3.46131 13.7305 3.36808 13.556C3.25 13.3351 3.25 13.0433 3.25 12.4596V10.668Z" stroke="white"/>
<path d="M5.4165 14.082H20.5832" stroke="white" stroke-linecap="round"/>
<path d="M13 7.58203L13 21.6654" stroke="white" stroke-linecap="round"/>
<path d="M12.9998 7.58333L12.0481 6.63157C10.8929 5.4764 9.48464 4.60605 7.93482 4.08944V4.08944C6.69591 3.67647 5.4165 4.59861 5.4165 5.90454V6.14182C5.4165 7.00268 5.96736 7.76695 6.78405 8.03918L8.6665 8.66667" stroke="white" stroke-linecap="round"/>
<path d="M13.0002 7.58333L13.9519 6.63157C15.1071 5.4764 16.5154 4.60605 18.0652 4.08944V4.08944C19.3041 3.67647 20.5835 4.59861 20.5835 5.90454V6.14182C20.5835 7.00268 20.0326 7.76695 19.216 8.03918L17.3335 8.66667" stroke="white" stroke-linecap="round"/>
</svg>
