<svg width="31" height="31" viewBox="0 0 31 31" fill="none" xmlns="http://www.w3.org/2000/svg">
<path d="M3.875 12.334C3.875 11.3912 3.875 10.9198 4.16789 10.6269C4.46079 10.334 4.93219 10.334 5.875 10.334H25.125C26.0678 10.334 26.5392 10.334 26.8321 10.6269C27.125 10.9198 27.125 11.3912 27.125 12.334V14.8548C27.125 15.737 27.125 16.1781 26.866 16.4639C26.844 16.4881 26.8208 16.5113 26.7966 16.5333C26.5107 16.7923 26.0697 16.7923 25.1875 16.7923V16.7923C24.3053 16.7923 23.8643 16.7923 23.5784 17.0514C23.5542 17.0733 23.531 17.0965 23.509 17.1208C23.25 17.4066 23.25 17.8477 23.25 18.7298V23.834C23.25 24.7768 23.25 25.2482 22.9571 25.5411C22.6642 25.834 22.1928 25.834 21.25 25.834H9.75C8.80719 25.834 8.33579 25.834 8.04289 25.5411C7.75 25.2482 7.75 24.7768 7.75 23.834V18.7298C7.75 17.8477 7.75 17.4066 7.49095 17.1208C7.46897 17.0965 7.44581 17.0733 7.42156 17.0514C7.13574 16.7923 6.69466 16.7923 5.8125 16.7923V16.7923C4.93034 16.7923 4.48926 16.7923 4.20344 16.5333C4.17919 16.5113 4.15603 16.4881 4.13405 16.4639C3.875 16.1781 3.875 15.737 3.875 14.8548V12.334Z" stroke="white"/>
<path d="M6.4585 16.791H24.5418" stroke="white" stroke-linecap="round"/>
<path d="M15.5 9.04102L15.5 25.8327" stroke="white" stroke-linecap="round"/>
<path d="M15.5002 9.04167L14.1072 7.64868C12.8997 6.44115 11.4276 5.53136 9.80751 4.99134L9.09095 4.75249C7.79589 4.3208 6.4585 5.28474 6.4585 6.64985V7.60015C6.4585 8.46101 7.00936 9.22529 7.82604 9.49752L10.3335 10.3333" stroke="white" stroke-linecap="round"/>
<path d="M15.4998 9.04167L16.8928 7.64868C18.1003 6.44115 19.5724 5.53136 21.1925 4.99134L21.909 4.75249C23.2041 4.3208 24.5415 5.28474 24.5415 6.64985V7.60015C24.5415 8.46101 23.9906 9.22529 23.174 9.49752L20.6665 10.3333" stroke="white" stroke-linecap="round"/>
</svg>
