<svg width="23" height="10" viewBox="0 0 23 10" fill="none" xmlns="http://www.w3.org/2000/svg">
<path d="M18.912 5.39614V9.04259H17.4453V2.81931H18.8472V3.87678H18.9201C19.0633 3.52835 19.2915 3.25149 19.6048 3.0462C19.9208 2.84092 20.3112 2.73828 20.7757 2.73828C21.2052 2.73828 21.5793 2.83012 21.898 3.01379C22.2195 3.19746 22.468 3.46352 22.6435 3.81196C22.8218 4.1604 22.9096 4.58312 22.9069 5.08011V9.04259H21.4402V5.307C21.4402 4.89104 21.3322 4.56556 21.1161 4.33056C20.9027 4.09557 20.6069 3.97807 20.2288 3.97807C19.9722 3.97807 19.7439 4.0348 19.544 4.14824C19.3469 4.25899 19.1916 4.4197 19.0781 4.63038C18.9674 4.84107 18.912 5.09632 18.912 5.39614Z" fill="black"/>
<path d="M13.2173 9.16414C12.6096 9.16414 12.0829 9.03044 11.6372 8.76303C11.1915 8.49562 10.8458 8.12152 10.6 7.64073C10.3569 7.15994 10.2354 6.59812 10.2354 5.95526C10.2354 5.31241 10.3569 4.74923 10.6 4.26574C10.8458 3.78225 11.1915 3.4068 11.6372 3.13939C12.0829 2.87198 12.6096 2.73828 13.2173 2.73828C13.8251 2.73828 14.3518 2.87198 14.7975 3.13939C15.2431 3.4068 15.5875 3.78225 15.8306 4.26574C16.0764 4.74923 16.1993 5.31241 16.1993 5.95526C16.1993 6.59812 16.0764 7.15994 15.8306 7.64073C15.5875 8.12152 15.2431 8.49562 14.7975 8.76303C14.3518 9.03044 13.8251 9.16414 13.2173 9.16414ZM13.2254 7.98917C13.555 7.98917 13.8305 7.89868 14.052 7.71771C14.2735 7.53404 14.4382 7.28824 14.5463 6.98032C14.657 6.6724 14.7124 6.32936 14.7124 5.95121C14.7124 5.57036 14.657 5.22597 14.5463 4.91805C14.4382 4.60743 14.2735 4.36028 14.052 4.1766C13.8305 3.99293 13.555 3.90109 13.2254 3.90109C12.8878 3.90109 12.6069 3.99293 12.3827 4.1766C12.1612 4.36028 11.9951 4.60743 11.8844 4.91805C11.7763 5.22597 11.7223 5.57036 11.7223 5.95121C11.7223 6.32936 11.7763 6.6724 11.8844 6.98032C11.9951 7.28824 12.1612 7.53404 12.3827 7.71771C12.6069 7.89868 12.8878 7.98917 13.2254 7.98917Z" fill="black"/>
<path d="M0.228516 0.744141H2.06795L4.53133 6.75673H4.62857L7.09195 0.744141H8.93138V9.04184H7.48901V3.34122H7.41202L5.11881 9.01753H4.04108L1.74787 3.32907H1.67089V9.04184H0.228516V0.744141Z" fill="black"/>
</svg>
