<svg width="160" height="152" viewBox="0 0 160 152" fill="none" xmlns="http://www.w3.org/2000/svg">
<path d="M152 80C152 70.5448 150.138 61.1822 146.519 52.4468C142.901 43.7114 137.598 35.7741 130.912 29.0883C124.226 22.4025 116.289 17.099 107.553 13.4807C98.8178 9.86234 89.4552 8 80 8C70.5448 7.99999 61.1823 9.86232 52.4468 13.4807C43.7114 17.099 35.7742 22.4025 29.0883 29.0883C22.4025 35.7741 17.099 43.7113 13.4807 52.4468C9.86234 61.1822 8 70.5448 8 80" stroke="#F2F4F7" stroke-width="16" stroke-linecap="round" stroke-linejoin="round"/>
<path d="M8 80C8 66.7216 11.672 53.7018 18.6099 42.3801C25.5479 31.0584 35.4815 21.8758 47.3127 15.8475C59.1438 9.81925 72.4116 7.18014 85.6491 8.22195C98.8865 9.26377 111.578 13.9459 122.321 21.7508" stroke="#009C67" stroke-width="16" stroke-linecap="round" stroke-linejoin="round"/>
</svg>
