<svg width="127" height="126" viewBox="0 0 127 126" fill="none" xmlns="http://www.w3.org/2000/svg">
<path d="M63.833 8C71.0557 8 78.2077 9.42262 84.8806 12.1866C91.5535 14.9506 97.6167 19.0019 102.724 24.1091C107.831 29.2164 111.882 35.2795 114.646 41.9524C117.41 48.6253 118.833 55.7773 118.833 63C118.833 70.2227 117.41 77.3747 114.646 84.0476C111.882 90.7205 107.831 96.7837 102.724 101.891C97.6166 106.998 91.5535 111.049 84.8806 113.813C78.2077 116.577 71.0557 118 63.833 118C56.6103 118 49.4583 116.577 42.7854 113.813C36.1125 111.049 30.0493 106.998 24.9421 101.891C19.8349 96.7836 15.7836 90.7205 13.0196 84.0476C10.2556 77.3747 8.833 70.2227 8.83301 63C8.83301 55.7773 10.2556 48.6253 13.0196 41.9524C15.7837 35.2795 19.8349 29.2163 24.9422 24.1091C30.0494 19.0019 36.1125 14.9506 42.7855 12.1866C49.4584 9.42261 56.6103 8 63.833 8L63.833 8Z" stroke="#F2F4F7" stroke-width="16" stroke-linecap="round" stroke-linejoin="round"/>
<path d="M63.833 8C70.7651 8 77.6346 9.31044 84.0799 11.8623" stroke="#EBBD38" stroke-width="16" stroke-linecap="round" stroke-linejoin="round"/>
</svg>
