<svg width="127" height="126" viewBox="0 0 127 126" fill="none" xmlns="http://www.w3.org/2000/svg">
<path d="M63.5 8C70.7227 8 77.8747 9.42262 84.5476 12.1866C91.2205 14.9506 97.2837 19.0019 102.391 24.1091C107.498 29.2164 111.549 35.2795 114.313 41.9524C117.077 48.6253 118.5 55.7773 118.5 63C118.5 70.2227 117.077 77.3747 114.313 84.0476C111.549 90.7205 107.498 96.7837 102.391 101.891C97.2836 106.998 91.2205 111.049 84.5476 113.813C77.8747 116.577 70.7227 118 63.5 118C56.2773 118 49.1253 116.577 42.4524 113.813C35.7795 111.049 29.7163 106.998 24.6091 101.891C19.5019 96.7836 15.4506 90.7205 12.6866 84.0476C9.92261 77.3747 8.5 70.2227 8.5 63C8.5 55.7773 9.92262 48.6253 12.6866 41.9524C15.4506 35.2795 19.5019 29.2163 24.6091 24.1091C29.7164 19.0019 35.7795 14.9506 42.4524 12.1866C49.1254 9.42261 56.2773 8 63.5 8L63.5 8Z" stroke="#F2F4F7" stroke-width="16" stroke-linecap="round" stroke-linejoin="round"/>
<path d="M63.5 8C72.1796 8 80.7359 10.0542 88.4695 13.9946C96.203 17.9351 102.894 23.6499 107.996 30.6718" stroke="#A5B85A" stroke-width="16" stroke-linecap="round" stroke-linejoin="round"/>
</svg>
