<svg width="127" height="126" viewBox="0 0 127 126" fill="none" xmlns="http://www.w3.org/2000/svg">
<path d="M63.1665 8C70.3892 8 77.5412 9.42262 84.2141 12.1866C90.887 14.9506 96.9502 19.0019 102.057 24.1091C107.165 29.2164 111.216 35.2795 113.98 41.9524C116.744 48.6253 118.167 55.7773 118.167 63C118.167 70.2227 116.744 77.3747 113.98 84.0476C111.216 90.7205 107.165 96.7837 102.057 101.891C96.9501 106.998 90.887 111.049 84.2141 113.813C77.5412 116.577 70.3892 118 63.1665 118C55.9438 118 48.7918 116.577 42.1189 113.813C35.446 111.049 29.3828 106.998 24.2756 101.891C19.1684 96.7836 15.1171 90.7205 12.3531 84.0476C9.58911 77.3747 8.1665 70.2227 8.1665 63C8.16651 55.7773 9.58913 48.6253 12.3531 41.9524C15.1172 35.2795 19.1684 29.2163 24.2757 24.1091C29.3829 19.0019 35.446 14.9506 42.1189 12.1866C48.7919 9.42261 55.9438 8 63.1665 8L63.1665 8Z" stroke="#F2F4F7" stroke-width="16" stroke-linecap="round" stroke-linejoin="round"/>
<path d="M63.1665 8C74.4863 8 85.5305 11.4928 94.7918 18.0018C104.053 24.5107 111.08 33.7188 114.915 44.3694C118.749 55.02 119.204 66.5944 116.217 77.513C113.23 88.4317 106.947 98.1627 98.2248 105.378C89.5027 112.594 78.7667 116.942 67.4818 117.83C56.1968 118.719 44.9127 116.103 35.1692 110.341C25.4258 104.579 17.6976 95.9502 13.0393 85.6333C8.38105 75.3163 7.01958 63.8134 9.14071 52.694" stroke="#009C67" stroke-width="16" stroke-linecap="round" stroke-linejoin="round"/>
</svg>
