<svg width="160" height="152" viewBox="0 0 160 152" fill="none" xmlns="http://www.w3.org/2000/svg">
<path d="M152 80C152 70.5448 150.138 61.1822 146.519 52.4468C142.901 43.7114 137.598 35.7741 130.912 29.0883C124.226 22.4025 116.289 17.099 107.553 13.4807C98.8178 9.86234 89.4552 8 80 8C70.5448 7.99999 61.1823 9.86232 52.4468 13.4807C43.7114 17.099 35.7742 22.4025 29.0883 29.0883C22.4025 35.7741 17.099 43.7113 13.4807 52.4468C9.86234 61.1822 8 70.5448 8 80" stroke="#F2F4F7" stroke-width="16" stroke-linecap="round" stroke-linejoin="round"/>
<path d="M8 80C8 63.9634 13.3538 48.3858 23.2124 35.7375C33.0711 23.0891 46.8701 14.0941 62.4214 10.1788C77.9727 6.26356 94.3861 7.65213 109.059 14.1244C123.731 20.5966 135.823 31.782 143.417 45.9068" stroke="#00DC91" stroke-width="16" stroke-linecap="round" stroke-linejoin="round"/>
</svg>
