<svg width="18" height="10" viewBox="0 0 18 10" fill="none" xmlns="http://www.w3.org/2000/svg">
<path d="M17.3764 2.82107V3.95552H13.7988V2.82107H17.3764ZM14.6821 1.33008H16.1488V7.1725C16.1488 7.36968 16.1785 7.52094 16.2379 7.62628C16.3 7.72893 16.3811 7.79915 16.481 7.83697C16.5809 7.87478 16.6917 7.89369 16.8132 7.89369C16.9051 7.89369 16.9888 7.88694 17.0644 7.87343C17.1428 7.85993 17.2022 7.84777 17.2427 7.83697L17.4898 8.98357C17.4115 9.01059 17.2994 9.0403 17.1536 9.07271C17.0104 9.10512 16.8348 9.12403 16.6269 9.12943C16.2595 9.14024 15.9286 9.08486 15.6342 8.96332C15.3398 8.83907 15.1061 8.64729 14.9333 8.38799C14.7631 8.12868 14.6794 7.80456 14.6821 7.4156V1.33008Z" fill="black"/>
<path d="M9.50636 9.17014C9.112 9.17014 8.75681 9.09992 8.44078 8.95946C8.12746 8.8163 7.87896 8.60562 7.69529 8.32741C7.51431 8.0492 7.42383 7.70616 7.42383 7.2983C7.42383 6.94716 7.48865 6.65679 7.61831 6.4272C7.74796 6.19761 7.92488 6.01394 8.14907 5.87618C8.37326 5.73843 8.62581 5.63444 8.90672 5.56421C9.19033 5.49128 9.4834 5.43861 9.78592 5.4062C10.1506 5.36838 10.4463 5.33462 10.6732 5.3049C10.9001 5.27249 11.0649 5.22387 11.1675 5.15905C11.2729 5.09152 11.3255 4.98753 11.3255 4.84707V4.82276C11.3255 4.51754 11.235 4.2812 11.0541 4.11373C10.8731 3.94626 10.6124 3.86253 10.2721 3.86253C9.91287 3.86253 9.62791 3.94086 9.41722 4.09752C9.20924 4.25419 9.06878 4.43921 8.99585 4.6526L7.62641 4.45812C7.73445 4.07997 7.91272 3.76394 8.16122 3.51004C8.40972 3.25344 8.71359 3.06166 9.07283 2.93471C9.43208 2.80506 9.82914 2.74023 10.264 2.74023C10.5638 2.74023 10.8623 2.77535 11.1594 2.84558C11.4565 2.9158 11.728 3.03195 11.9738 3.19401C12.2196 3.35338 12.4168 3.57081 12.5653 3.84632C12.7166 4.12183 12.7922 4.46622 12.7922 4.87949V9.04454H11.3823V8.18965H11.3336C11.2445 8.36252 11.1189 8.52459 10.9568 8.67585C10.7975 8.82441 10.5962 8.9446 10.3531 9.03644C10.1127 9.12558 9.83049 9.17014 9.50636 9.17014ZM9.88721 8.09241C10.1816 8.09241 10.4369 8.03434 10.653 7.91819C10.869 7.79935 11.0352 7.64269 11.1513 7.44821C11.2702 7.25373 11.3296 7.0417 11.3296 6.8121V6.07876C11.2837 6.11658 11.2053 6.15169 11.0946 6.1841C10.9865 6.21652 10.865 6.24488 10.7299 6.26919C10.5949 6.2935 10.4612 6.31511 10.3288 6.33401C10.1965 6.35292 10.0817 6.36913 9.98445 6.38263C9.76566 6.41235 9.56983 6.46096 9.39696 6.52849C9.22409 6.59602 9.08769 6.69056 8.98775 6.8121C8.88781 6.93095 8.83784 7.08491 8.83784 7.27399C8.83784 7.5441 8.93643 7.74803 9.13361 7.88578C9.33079 8.02354 9.58199 8.09241 9.88721 8.09241Z" fill="black"/>
<path d="M4.88153 3.02732C4.84371 2.67348 4.68435 2.39797 4.40344 2.20079C4.12523 2.00361 3.76328 1.90502 3.31761 1.90502C3.00428 1.90502 2.73553 1.95229 2.51134 2.04683C2.28715 2.14136 2.11563 2.26966 1.99678 2.43173C1.87793 2.59379 1.81716 2.77882 1.81446 2.9868C1.81446 3.15967 1.85362 3.30958 1.93196 3.43653C2.01299 3.56348 2.12238 3.67152 2.26014 3.76066C2.39789 3.84709 2.5505 3.92002 2.71797 3.97944C2.88544 4.03887 3.05425 4.08884 3.22442 4.12935L4.00233 4.32383C4.31565 4.39676 4.61682 4.49535 4.90584 4.6196C5.19756 4.74385 5.45821 4.90051 5.6878 5.08959C5.92009 5.27866 6.10377 5.5069 6.23882 5.77431C6.37387 6.04172 6.4414 6.35504 6.4414 6.71428C6.4414 7.20048 6.31715 7.6286 6.06865 7.99864C5.82015 8.36599 5.46091 8.65366 4.99092 8.86164C4.52364 9.06692 3.95776 9.16956 3.2933 9.16956C2.64774 9.16956 2.08727 9.06962 1.61188 8.86974C1.13919 8.66986 0.769143 8.37815 0.501737 7.99459C0.237031 7.61104 0.0938742 7.14375 0.0722656 6.59274H1.5511C1.57271 6.88175 1.66185 7.12215 1.81851 7.31392C1.97517 7.5057 2.1791 7.64886 2.4303 7.74339C2.68421 7.83793 2.96782 7.8852 3.28114 7.8852C3.60797 7.8852 3.89429 7.83658 4.14008 7.73934C4.38858 7.6394 4.58306 7.50165 4.72352 7.32608C4.86397 7.14781 4.93555 6.93982 4.93825 6.70213C4.93555 6.48604 4.87208 6.30777 4.74783 6.16732C4.62358 6.02416 4.44936 5.90531 4.22517 5.81077C4.00368 5.71354 3.74438 5.6271 3.44726 5.55147L2.50323 5.30837C1.81986 5.1328 1.27965 4.86675 0.882588 4.51021C0.488231 4.15096 0.291053 3.67422 0.291053 3.07999C0.291053 2.59109 0.423405 2.16297 0.688111 1.79563C0.955517 1.42828 1.31881 1.14332 1.77799 0.940735C2.23718 0.735453 2.75713 0.632812 3.33787 0.632812C3.9267 0.632812 4.44261 0.735453 4.88558 0.940735C5.33126 1.14332 5.68105 1.42558 5.93495 1.78752C6.18885 2.14676 6.31985 2.56003 6.32796 3.02732H4.88153Z" fill="black"/>
</svg>
