<svg width="21" height="10" viewBox="0 0 21 10" fill="none" xmlns="http://www.w3.org/2000/svg">
<path d="M16.9393 5.39809V9.04454H15.4727V2.82127H16.8745V3.87874H16.9474C17.0906 3.5303 17.3188 3.25344 17.6322 3.04816C17.9482 2.84288 18.3385 2.74023 18.8031 2.74023C19.2326 2.74023 19.6067 2.83207 19.9254 3.01574C20.2468 3.19942 20.4953 3.46547 20.6709 3.81391C20.8491 4.16235 20.9369 4.58507 20.9342 5.08207V9.04454H19.4675V5.30896C19.4675 4.89299 19.3595 4.56751 19.1434 4.33252C18.93 4.09752 18.6343 3.98003 18.2561 3.98003C17.9995 3.98003 17.7713 4.03675 17.5714 4.1502C17.3742 4.26094 17.2189 4.42165 17.1055 4.63234C16.9947 4.84302 16.9393 5.09827 16.9393 5.39809Z" fill="black"/>
<path d="M12.4988 6.42625V2.82031H13.9654V9.04359H12.5433V7.9375H12.4785C12.338 8.28594 12.1071 8.5709 11.7857 8.79239C11.4669 9.01388 11.0739 9.12462 10.6067 9.12462C10.1988 9.12462 9.8382 9.03413 9.52487 8.85316C9.21425 8.66949 8.97115 8.40343 8.79558 8.055C8.62001 7.70386 8.53223 7.27979 8.53223 6.78279V2.82031H9.99891V6.5559C9.99891 6.95026 10.107 7.26358 10.323 7.49587C10.5391 7.72817 10.8227 7.84431 11.1739 7.84431C11.39 7.84431 11.5993 7.79164 11.8019 7.6863C12.0045 7.58096 12.1706 7.42429 12.3002 7.21631C12.4326 7.00563 12.4988 6.74227 12.4988 6.42625Z" fill="black"/>
<path d="M5.69696 3.02732C5.65914 2.67348 5.49978 2.39797 5.21887 2.20079C4.94066 2.00361 4.57871 1.90502 4.13304 1.90502C3.81971 1.90502 3.55096 1.95229 3.32677 2.04683C3.10258 2.14136 2.93106 2.26966 2.81221 2.43173C2.69336 2.59379 2.63259 2.77882 2.62989 2.9868C2.62989 3.15967 2.66905 3.30958 2.74739 3.43653C2.82842 3.56348 2.93781 3.67152 3.07557 3.76066C3.21332 3.84709 3.36593 3.92002 3.5334 3.97944C3.70087 4.03887 3.86968 4.08884 4.03985 4.12935L4.81776 4.32383C5.13108 4.39676 5.43225 4.49535 5.72127 4.6196C6.01299 4.74385 6.27364 4.90051 6.50323 5.08959C6.73552 5.27866 6.9192 5.5069 7.05425 5.77431C7.1893 6.04172 7.25683 6.35504 7.25683 6.71428C7.25683 7.20048 7.13258 7.6286 6.88408 7.99864C6.63558 8.36599 6.27634 8.65366 5.80635 8.86164C5.33907 9.06692 4.77319 9.16956 4.10873 9.16956C3.46317 9.16956 2.9027 9.06962 2.42731 8.86974C1.95462 8.66986 1.58457 8.37815 1.31717 7.99459C1.05246 7.61104 0.909304 7.14375 0.887695 6.59274H2.36653C2.38814 6.88175 2.47728 7.12215 2.63394 7.31392C2.7906 7.5057 2.99453 7.64886 3.24573 7.74339C3.49963 7.83793 3.78325 7.8852 4.09657 7.8852C4.4234 7.8852 4.70972 7.83658 4.95551 7.73934C5.20401 7.6394 5.39849 7.50165 5.53895 7.32608C5.6794 7.14781 5.75098 6.93982 5.75368 6.70213C5.75098 6.48604 5.68751 6.30777 5.56326 6.16732C5.43901 6.02416 5.26479 5.90531 5.0406 5.81077C4.81911 5.71354 4.55981 5.6271 4.26269 5.55147L3.31866 5.30837C2.63529 5.1328 2.09508 4.86675 1.69802 4.51021C1.30366 4.15096 1.10648 3.67422 1.10648 3.07999C1.10648 2.59109 1.23884 2.16297 1.50354 1.79563C1.77095 1.42828 2.13424 1.14332 2.59342 0.940735C3.05261 0.735453 3.57256 0.632812 4.1533 0.632812C4.74213 0.632812 5.25803 0.735453 5.70101 0.940735C6.14669 1.14332 6.49648 1.42558 6.75038 1.78752C7.00428 2.14676 7.13528 2.56003 7.14339 3.02732H5.69696Z" fill="black"/>
</svg>
