<svg width="21" height="10" viewBox="0 0 21 10" fill="none" xmlns="http://www.w3.org/2000/svg">
<path d="M19.2732 6.42625V2.82031H20.7399V9.04359H19.3177V7.9375H19.2529C19.1125 8.28594 18.8815 8.5709 18.5601 8.79239C18.2414 9.01388 17.8484 9.12462 17.3811 9.12462C16.9732 9.12462 16.6126 9.03413 16.2993 8.85316C15.9887 8.66949 15.7456 8.40343 15.57 8.055C15.3944 7.70386 15.3066 7.27979 15.3066 6.78279V2.82031H16.7733V6.5559C16.7733 6.95026 16.8814 7.26358 17.0975 7.49587C17.3135 7.72817 17.5972 7.84431 17.9483 7.84431C18.1644 7.84431 18.3737 7.79164 18.5763 7.6863C18.7789 7.58096 18.945 7.42429 19.0746 7.21631C19.207 7.00563 19.2732 6.74227 19.2732 6.42625Z" fill="black"/>
<path d="M9.77625 5.39539V9.04184H8.30957V0.744141H9.74384V3.87604H9.81677C9.96263 3.5249 10.1882 3.24804 10.4934 3.04546C10.8013 2.84018 11.193 2.73753 11.6684 2.73753C12.1005 2.73753 12.4773 2.82802 12.7988 3.00899C13.1202 3.18996 13.3687 3.45467 13.5443 3.80311C13.7225 4.15155 13.8117 4.57697 13.8117 5.07937V9.04184H12.345V5.30626C12.345 4.88759 12.2369 4.56211 12.0208 4.32982C11.8075 4.09482 11.5076 3.97733 11.1214 3.97733C10.8621 3.97733 10.6298 4.03405 10.4245 4.1475C10.2219 4.25824 10.0626 4.41895 9.94642 4.62964C9.83298 4.84032 9.77625 5.09557 9.77625 5.39539Z" fill="black"/>
<path d="M0.478516 2.00419V0.744141H7.09885V2.00419H4.53418V9.04184H3.04319V2.00419H0.478516Z" fill="black"/>
</svg>
