<svg width="20" height="10" viewBox="0 0 20 10" fill="none" xmlns="http://www.w3.org/2000/svg">
<path d="M17.1114 9.16414C16.4874 9.16414 15.9486 9.03449 15.4948 8.77518C15.0437 8.51318 14.6966 8.14313 14.4535 7.66504C14.2104 7.18425 14.0889 6.61838 14.0889 5.96742C14.0889 5.32726 14.2104 4.76544 14.4535 4.28195C14.6993 3.79575 15.0423 3.4176 15.4826 3.14749C15.9229 2.87469 16.4402 2.73828 17.0344 2.73828C17.4179 2.73828 17.7799 2.80041 18.1202 2.92466C18.4633 3.0462 18.7658 3.23528 19.0278 3.49188C19.2925 3.74848 19.5005 4.07531 19.6517 4.47237C19.803 4.86673 19.8786 5.33671 19.8786 5.88233V6.33206H14.7776V5.34347H18.4727C18.47 5.06256 18.4092 4.81271 18.2904 4.59392C18.1715 4.37243 18.0054 4.19821 17.792 4.07126C17.5814 3.94431 17.3356 3.88084 17.0546 3.88084C16.7548 3.88084 16.4915 3.95376 16.2646 4.09962C16.0377 4.24278 15.8608 4.43185 15.7338 4.66685C15.6096 4.89914 15.5461 5.15439 15.5434 5.4326V6.2956C15.5434 6.65754 15.6096 6.96816 15.7419 7.22747C15.8743 7.48407 16.0593 7.68125 16.297 7.819C16.5347 7.95406 16.8129 8.02158 17.1316 8.02158C17.345 8.02158 17.5381 7.99187 17.711 7.93245C17.8839 7.87032 18.0338 7.77984 18.1607 7.66099C18.2877 7.54214 18.3836 7.39493 18.4484 7.21936L19.8178 7.37333C19.7314 7.73527 19.5666 8.0513 19.3236 8.3214C19.0832 8.58881 18.7752 8.79679 18.3998 8.94535C18.0243 9.09121 17.5949 9.16414 17.1114 9.16414Z" fill="black"/>
<path d="M11.3806 6.42625V2.82031H12.8473V9.04359H11.4252V7.9375H11.3603C11.2199 8.28594 10.9889 8.5709 10.6675 8.79239C10.3488 9.01388 9.95577 9.12462 9.48849 9.12462C9.08063 9.12462 8.72003 9.03413 8.40671 8.85316C8.09608 8.66949 7.85299 8.40343 7.67742 8.055C7.50185 7.70386 7.41406 7.27979 7.41406 6.78279V2.82031H8.88075V6.5559C8.88075 6.95026 8.98879 7.26358 9.20488 7.49587C9.42096 7.72817 9.70457 7.84431 10.0557 7.84431C10.2718 7.84431 10.4811 7.79164 10.6837 7.6863C10.8863 7.58096 11.0524 7.42429 11.1821 7.21631C11.3144 7.00563 11.3806 6.74227 11.3806 6.42625Z" fill="black"/>
<path d="M0.428711 2.00419V0.744141H7.04905V2.00419H4.48437V9.04184H2.99338V2.00419H0.428711Z" fill="black"/>
</svg>
