<svg width="25" height="10" viewBox="0 0 25 10" fill="none" xmlns="http://www.w3.org/2000/svg">
<path d="M21.2141 9.15124C20.7252 9.15124 20.2876 9.02564 19.9014 8.77444C19.5151 8.52324 19.2099 8.15859 18.9857 7.6805C18.7615 7.20241 18.6494 6.62168 18.6494 5.93831C18.6494 5.24683 18.7629 4.6634 18.9897 4.18801C19.2193 3.70992 19.5286 3.34933 19.9176 3.10623C20.3065 2.86043 20.74 2.73753 21.2181 2.73753C21.5828 2.73753 21.8826 2.79966 22.1176 2.92391C22.3526 3.04546 22.539 3.19267 22.6767 3.36553C22.8145 3.5357 22.9212 3.69642 22.9968 3.84768H23.0576V0.744141H24.5283V9.04184H23.0859V8.06135H22.9968C22.9212 8.21261 22.8118 8.37333 22.6686 8.54349C22.5255 8.71096 22.3364 8.85412 22.1014 8.97297C21.8664 9.09181 21.5706 9.15124 21.2141 9.15124ZM21.6233 7.94791C21.9339 7.94791 22.1986 7.86417 22.4174 7.69671C22.6362 7.52654 22.8023 7.2902 22.9158 6.98768C23.0292 6.68515 23.0859 6.33266 23.0859 5.9302C23.0859 5.52774 23.0292 5.17796 22.9158 4.88084C22.805 4.58372 22.6403 4.35278 22.4215 4.18801C22.2054 4.02325 21.9393 3.94086 21.6233 3.94086C21.2965 3.94086 21.0237 4.02595 20.8049 4.19611C20.5861 4.36628 20.4213 4.60128 20.3106 4.9011C20.1998 5.20091 20.1445 5.54395 20.1445 5.9302C20.1445 6.31916 20.1998 6.66625 20.3106 6.97147C20.424 7.27399 20.5901 7.51303 20.8089 7.6886C21.0304 7.86147 21.3019 7.94791 21.6233 7.94791Z" fill="black"/>
<path d="M14.8965 9.16414C14.2726 9.16414 13.7337 9.03449 13.2799 8.77518C12.8289 8.51318 12.4818 8.14313 12.2387 7.66504C11.9956 7.18425 11.874 6.61838 11.874 5.96742C11.874 5.32726 11.9956 4.76544 12.2387 4.28195C12.4845 3.79575 12.8275 3.4176 13.2678 3.14749C13.7081 2.87469 14.2253 2.73828 14.8195 2.73828C15.2031 2.73828 15.565 2.80041 15.9054 2.92466C16.2484 3.0462 16.5509 3.23528 16.8129 3.49188C17.0776 3.74848 17.2856 4.07531 17.4369 4.47237C17.5881 4.86673 17.6638 5.33671 17.6638 5.88233V6.33206H12.5628V5.34347H16.2579C16.2552 5.06256 16.1944 4.81271 16.0755 4.59392C15.9567 4.37243 15.7906 4.19821 15.5772 4.07126C15.3665 3.94431 15.1207 3.88084 14.8398 3.88084C14.54 3.88084 14.2766 3.95376 14.0497 4.09962C13.8228 4.24278 13.6459 4.43185 13.519 4.66685C13.3947 4.89914 13.3313 5.15439 13.3286 5.4326V6.2956C13.3286 6.65754 13.3947 6.96816 13.5271 7.22747C13.6594 7.48407 13.8445 7.68125 14.0822 7.819C14.3198 7.95406 14.5981 8.02158 14.9168 8.02158C15.1302 8.02158 15.3233 7.99187 15.4962 7.93245C15.669 7.87032 15.8189 7.77984 15.9459 7.66099C16.0728 7.54214 16.1687 7.39493 16.2336 7.21936L17.603 7.37333C17.5166 7.73527 17.3518 8.0513 17.1087 8.3214C16.8683 8.58881 16.5604 8.79679 16.1849 8.94535C15.8095 9.09121 15.38 9.16414 14.8965 9.16414Z" fill="black"/>
<path d="M3.10062 9.04184L0.758789 0.744141H2.37538L3.87043 6.84182H3.94741L5.54374 0.744141H7.01448L8.61487 6.84587H8.68779L10.1828 0.744141H11.7994L9.4576 9.04184H7.97471L6.31355 3.21968H6.24872L4.58351 9.04184H3.10062Z" fill="black"/>
</svg>
