<svg width="26" height="26" viewBox="0 0 26 26" fill="none" xmlns="http://www.w3.org/2000/svg">
<path d="M3.25 10.666C3.25 9.72321 3.25 9.2518 3.54289 8.95891C3.83579 8.66602 4.30719 8.66602 5.25 8.66602H20.75C21.6928 8.66602 22.1642 8.66602 22.4571 8.95891C22.75 9.2518 22.75 9.72321 22.75 10.666V12.4577C22.75 13.0413 22.75 13.3332 22.6319 13.5541C22.5387 13.7285 22.3958 13.8714 22.2214 13.9646C22.0005 14.0827 21.7087 14.0827 21.125 14.0827V14.0827C20.5413 14.0827 20.2495 14.0827 20.0286 14.2008C19.8542 14.294 19.7113 14.4369 19.6181 14.6113C19.5 14.8322 19.5 15.124 19.5 15.7077V19.666C19.5 20.6088 19.5 21.0802 19.2071 21.3731C18.9142 21.666 18.4428 21.666 17.5 21.666H8.5C7.55719 21.666 7.08579 21.666 6.79289 21.3731C6.5 21.0802 6.5 20.6088 6.5 19.666V15.7077C6.5 15.124 6.5 14.8322 6.38192 14.6113C6.28869 14.4369 6.14582 14.294 5.9714 14.2008C5.75049 14.0827 5.45866 14.0827 4.875 14.0827V14.0827C4.29134 14.0827 3.99951 14.0827 3.7786 13.9646C3.60418 13.8714 3.46131 13.7285 3.36808 13.5541C3.25 13.3332 3.25 13.0413 3.25 12.4577V10.666Z" stroke="white"/>
<path d="M5.4165 14.084H20.5832" stroke="white" stroke-linecap="round"/>
<path d="M13 7.58398L13 21.6673" stroke="white" stroke-linecap="round"/>
<path d="M12.9998 7.58333L12.0481 6.63157C10.8929 5.4764 9.48464 4.60605 7.93482 4.08944V4.08944C6.69591 3.67647 5.4165 4.59861 5.4165 5.90454V6.14182C5.4165 7.00268 5.96736 7.76695 6.78405 8.03918L8.6665 8.66667" stroke="white" stroke-linecap="round"/>
<path d="M13.0002 7.58333L13.9519 6.63157C15.1071 5.4764 16.5154 4.60605 18.0652 4.08944V4.08944C19.3041 3.67647 20.5835 4.59861 20.5835 5.90454V6.14182C20.5835 7.00268 20.0326 7.76695 19.216 8.03918L17.3335 8.66667" stroke="white" stroke-linecap="round"/>
</svg>
