<svg width="1065" height="421" viewBox="0 0 1065 421" fill="none" xmlns="http://www.w3.org/2000/svg">
<g filter="url(#filter0_d_1_10927)">
<path d="M27 37.8842C27 22.3779 42.67 9.80765 62 9.80765H1003C1022.33 9.80765 1038 22.3779 1038 37.8842V345.923C1038 361.43 1022.33 374 1003 374H62C42.6701 374 27 361.43 27 345.923V37.8842Z" fill="white"/>
<path fill-rule="evenodd" clip-rule="evenodd" d="M65.5 7C44.237 7 27 20.8273 27 37.8842C27 22.3779 42.67 9.80765 62 9.80765H1003C1022.33 9.80765 1038 22.3779 1038 37.8842C1038 20.8273 1020.76 7 999.5 7H65.5Z" fill="#C9C7C7"/>
</g>
<defs>
<filter id="filter0_d_1_10927" x="0.6" y="0.6" width="1063.8" height="419.8" filterUnits="userSpaceOnUse" color-interpolation-filters="sRGB">
<feFlood flood-opacity="0" result="BackgroundImageFix"/>
<feColorMatrix in="SourceAlpha" type="matrix" values="0 0 0 0 0 0 0 0 0 0 0 0 0 0 0 0 0 0 127 0" result="hardAlpha"/>
<feOffset dy="20"/>
<feGaussianBlur stdDeviation="13.2"/>
<feComposite in2="hardAlpha" operator="out"/>
<feColorMatrix type="matrix" values="0 0 0 0 0 0 0 0 0 0 0 0 0 0 0 0 0 0 0.25 0"/>
<feBlend mode="normal" in2="BackgroundImageFix" result="effect1_dropShadow_1_10927"/>
<feBlend mode="normal" in="SourceGraphic" in2="effect1_dropShadow_1_10927" result="shape"/>
</filter>
</defs>
</svg>
